<?xml version="1.0" encoding="UTF-8" standalone="no"?>
<!DOCTYPE svg PUBLIC "-//W3C//DTD SVG 1.1//EN"
 "http://www.w3.org/Graphics/SVG/1.1/DTD/svg11.dtd">
<!-- Generated by graphviz version 12.2.1 (20250203.1708)
 -->
<!-- Pages: 1 -->
<svg width="1213pt" height="160pt"
 viewBox="0.00 0.00 1212.63 160.00" xmlns="http://www.w3.org/2000/svg" xmlns:xlink="http://www.w3.org/1999/xlink">
<g id="graph0" class="graph" transform="scale(1 1) rotate(0) translate(4 156)">
<polygon fill="white" stroke="none" points="-4,4 -4,-156 1208.63,-156 1208.63,4 -4,4"/>
<!-- aruco -->
<g id="node1" class="node">
<title>aruco</title>
<g id="a_node1"><a xlink:href="https://github.com/conda-forge/aruco-feedstock/pull/17" xlink:title="aruco ❎">
<ellipse fill="#31688e" stroke="black" cx="1150.27" cy="-98" rx="54.36" ry="18"/>
<text text-anchor="middle" x="1150.27" y="-93.33" font-family="Times,serif" font-size="14.00" fill="white">aruco ❎</text>
</a>
</g>
</g>
<!-- yarp -->
<g id="node2" class="node">
<title>yarp</title>
<g id="a_node2"><a xlink:href="https://github.com/conda-forge/yarp-feedstock/pull/60" xlink:title="yarp ✓">
<ellipse fill="#31688e" stroke="black" cx="571.27" cy="-134" rx="41.74" ry="18"/>
<text text-anchor="middle" x="571.27" y="-129.32" font-family="Times,serif" font-size="14.00" fill="white">yarp ✓</text>
</a>
</g>
</g>
<!-- bipedal&#45;locomotion&#45;framework -->
<g id="node4" class="node">
<title>bipedal&#45;locomotion&#45;framework</title>
<g id="a_node4"><a xlink:href="https://github.com/conda-forge/bipedal-locomotion-framework-feedstock" xlink:title="bipedal locomotion framework">
<ellipse fill="#fde725" stroke="black" cx="163.27" cy="-62" rx="163.27" ry="18"/>
<text text-anchor="middle" x="163.27" y="-57.33" font-family="Times,serif" font-size="14.00">bipedal locomotion framework</text>
</a>
</g>
</g>
<!-- yarp&#45;&gt;bipedal&#45;locomotion&#45;framework -->
<g id="edge1" class="edge">
<title>yarp&#45;&gt;bipedal&#45;locomotion&#45;framework</title>
<path fill="none" stroke="black" d="M532.89,-126.41C471.03,-115.8 347.41,-94.59 260.21,-79.63"/>
<polygon fill="black" stroke="black" points="260.91,-76.2 250.46,-77.96 259.72,-83.1 260.91,-76.2"/>
</g>
<!-- gazebo&#45;yarp&#45;plugins -->
<g id="node5" class="node">
<title>gazebo&#45;yarp&#45;plugins</title>
<g id="a_node5"><a xlink:href="https://github.com/conda-forge/gazebo-yarp-plugins-feedstock" xlink:title="gazebo yarp plugins">
<ellipse fill="#fde725" stroke="black" cx="457.27" cy="-62" rx="112.24" ry="18"/>
<text text-anchor="middle" x="457.27" y="-57.33" font-family="Times,serif" font-size="14.00">gazebo yarp plugins</text>
</a>
</g>
</g>
<!-- yarp&#45;&gt;gazebo&#45;yarp&#45;plugins -->
<g id="edge3" class="edge">
<title>yarp&#45;&gt;gazebo&#45;yarp&#45;plugins</title>
<path fill="none" stroke="black" d="M547.92,-118.67C532.43,-109.15 511.75,-96.45 494.06,-85.59"/>
<polygon fill="black" stroke="black" points="496.24,-82.82 485.88,-80.57 492.57,-88.79 496.24,-82.82"/>
</g>
<!-- ergocub&#45;software -->
<g id="node7" class="node">
<title>ergocub&#45;software</title>
<g id="a_node7"><a xlink:href="https://github.com/conda-forge/ergocub-software-feedstock" xlink:title="ergocub software">
<ellipse fill="#fde725" stroke="black" cx="686.27" cy="-62" rx="98.56" ry="18"/>
<text text-anchor="middle" x="686.27" y="-57.33" font-family="Times,serif" font-size="14.00">ergocub software</text>
</a>
</g>
</g>
<!-- yarp&#45;&gt;ergocub&#45;software -->
<g id="edge2" class="edge">
<title>yarp&#45;&gt;ergocub&#45;software</title>
<path fill="none" stroke="black" d="M594.82,-118.67C610.57,-109.08 631.6,-96.27 649.53,-85.36"/>
<polygon fill="black" stroke="black" points="651.1,-88.5 657.83,-80.31 647.46,-82.52 651.1,-88.5"/>
</g>
<!-- icub&#45;main -->
<g id="node8" class="node">
<title>icub&#45;main</title>
<g id="a_node8"><a xlink:href="https://github.com/conda-forge/icub-main-feedstock" xlink:title="icub main">
<ellipse fill="#fde725" stroke="black" cx="863.27" cy="-62" rx="60.15" ry="18"/>
<text text-anchor="middle" x="863.27" y="-57.33" font-family="Times,serif" font-size="14.00">icub main</text>
</a>
</g>
</g>
<!-- yarp&#45;&gt;icub&#45;main -->
<g id="edge4" class="edge">
<title>yarp&#45;&gt;icub&#45;main</title>
<path fill="none" stroke="black" d="M607.21,-124.55C651.3,-114.17 728.32,-95.96 794.27,-80 798.47,-78.98 802.81,-77.93 807.17,-76.86"/>
<polygon fill="black" stroke="black" points="807.65,-80.35 816.53,-74.57 805.99,-73.55 807.65,-80.35"/>
</g>
<!-- bgslibrary -->
<g id="node3" class="node">
<title>bgslibrary</title>
<g id="a_node3"><a xlink:href="https://github.com/conda-forge/bgslibrary-feedstock/pull/11" xlink:title="bgslibrary ❎">
<ellipse fill="#31688e" stroke="black" cx="1009.27" cy="-98" rx="78.04" ry="18"/>
<text text-anchor="middle" x="1009.27" y="-93.33" font-family="Times,serif" font-size="14.00" fill="white">bgslibrary ❎</text>
</a>
</g>
</g>
<!-- visp -->
<g id="node6" class="node">
<title>visp</title>
<g id="a_node6"><a xlink:href="https://github.com/conda-forge/visp-feedstock" xlink:title="visp">
<ellipse fill="#fde725" stroke="black" cx="462.27" cy="-18" rx="31.74" ry="18"/>
<text text-anchor="middle" x="462.27" y="-13.32" font-family="Times,serif" font-size="14.00">visp</text>
</a>
</g>
</g>
</g>
</svg>
