<?xml version="1.0" encoding="UTF-8" standalone="no"?>
<!DOCTYPE svg PUBLIC "-//W3C//DTD SVG 1.1//EN"
 "http://www.w3.org/Graphics/SVG/1.1/DTD/svg11.dtd">
<!-- Generated by graphviz version 12.0.0 (20240803.0821)
 -->
<!-- Pages: 1 -->
<svg width="162pt" height="188pt"
 viewBox="0.00 0.00 162.20 188.00" xmlns="http://www.w3.org/2000/svg" xmlns:xlink="http://www.w3.org/1999/xlink">
<g id="graph0" class="graph" transform="scale(1 1) rotate(0) translate(4 184)">
<polygon fill="white" stroke="none" points="-4,4 -4,-184 158.2,-184 158.2,4 -4,4"/>
<!-- audi -->
<g id="node1" class="node">
<title>audi</title>
<g id="a_node1"><a xlink:href="https://github.com/conda-forge/audi-feedstock/pull/38" xlink:title="audi ✓">
<ellipse fill="#31688e" stroke="black" cx="80.89" cy="-162" rx="40.69" ry="18"/>
<text text-anchor="middle" x="80.89" y="-157.32" font-family="Times,serif" font-size="14.00" fill="white">audi ✓</text>
</a>
</g>
</g>
<!-- pyaudi -->
<g id="node2" class="node">
<title>pyaudi</title>
<g id="a_node2"><a xlink:href="https://github.com/conda-forge/pyaudi-feedstock" xlink:title="pyaudi">
<ellipse fill="#fde725" stroke="black" cx="44.89" cy="-90" rx="44.89" ry="18"/>
<text text-anchor="middle" x="44.89" y="-85.33" font-family="Times,serif" font-size="14.00">pyaudi</text>
</a>
</g>
</g>
<!-- audi&#45;&gt;pyaudi -->
<g id="edge2" class="edge">
<title>audi&#45;&gt;pyaudi</title>
<path fill="none" stroke="black" d="M72.18,-144.05C68.16,-136.23 63.28,-126.75 58.77,-117.98"/>
<polygon fill="black" stroke="black" points="61.91,-116.43 54.22,-109.13 55.68,-119.63 61.91,-116.43"/>
</g>
<!-- dcgp&#45;python -->
<g id="node3" class="node">
<title>dcgp&#45;python</title>
<g id="a_node3"><a xlink:href="https://github.com/conda-forge/dcgp-python-feedstock" xlink:title="dcgp python">
<ellipse fill="#fde725" stroke="black" cx="80.89" cy="-18" rx="73.3" ry="18"/>
<text text-anchor="middle" x="80.89" y="-13.32" font-family="Times,serif" font-size="14.00">dcgp python</text>
</a>
</g>
</g>
<!-- audi&#45;&gt;dcgp&#45;python -->
<g id="edge1" class="edge">
<title>audi&#45;&gt;dcgp&#45;python</title>
<path fill="none" stroke="black" d="M88.19,-144.18C92.23,-133.94 96.84,-120.46 98.89,-108 101.5,-92.21 101.5,-87.79 98.89,-72 97.52,-63.66 95,-54.87 92.27,-46.89"/>
<polygon fill="black" stroke="black" points="95.63,-45.89 88.9,-37.72 89.06,-48.31 95.63,-45.89"/>
</g>
<!-- pyaudi&#45;&gt;dcgp&#45;python -->
<g id="edge3" class="edge">
<title>pyaudi&#45;&gt;dcgp&#45;python</title>
<path fill="none" stroke="black" d="M53.61,-72.05C57.57,-64.35 62.37,-55.03 66.82,-46.36"/>
<polygon fill="black" stroke="black" points="69.86,-48.11 71.32,-37.62 63.63,-44.91 69.86,-48.11"/>
</g>
</g>
</svg>
