<?xml version="1.0" encoding="UTF-8" standalone="no"?>
<!DOCTYPE svg PUBLIC "-//W3C//DTD SVG 1.1//EN"
 "http://www.w3.org/Graphics/SVG/1.1/DTD/svg11.dtd">
<!-- Generated by graphviz version 12.2.1 (20250203.1708)
 -->
<!-- Pages: 1 -->
<svg width="634pt" height="664pt"
 viewBox="0.00 0.00 634.16 664.00" xmlns="http://www.w3.org/2000/svg" xmlns:xlink="http://www.w3.org/1999/xlink">
<g id="graph0" class="graph" transform="scale(1 1) rotate(0) translate(4 660)">
<polygon fill="white" stroke="none" points="-4,4 -4,-660 630.16,-660 630.16,4 -4,4"/>
<!-- stir -->
<g id="node1" class="node">
<title>stir</title>
<g id="a_node1"><a xlink:href="https://github.com/conda-forge/stir-feedstock" xlink:title="stir">
<ellipse fill="#35b779" stroke="black" cx="109.61" cy="-638" rx="28.59" ry="18"/>
<text text-anchor="middle" x="109.61" y="-633.33" font-family="Times,serif" font-size="14.00">stir</text>
</a>
</g>
</g>
<!-- rapidsim -->
<g id="node2" class="node">
<title>rapidsim</title>
<g id="a_node2"><a xlink:href="https://github.com/conda-forge/rapidsim-feedstock" xlink:title="rapidsim">
<ellipse fill="#fde725" stroke="black" cx="109.61" cy="-566" rx="55.42" ry="18"/>
<text text-anchor="middle" x="109.61" y="-561.33" font-family="Times,serif" font-size="14.00">rapidsim</text>
</a>
</g>
</g>
<!-- stir&#45;&gt;rapidsim -->
<!-- ostaphep -->
<g id="node3" class="node">
<title>ostaphep</title>
<g id="a_node3"><a xlink:href="https://github.com/conda-forge/ostaphep-feedstock" xlink:title="ostaphep">
<ellipse fill="#35b779" stroke="black" cx="109.61" cy="-494" rx="57" ry="18"/>
<text text-anchor="middle" x="109.61" y="-489.32" font-family="Times,serif" font-size="14.00">ostaphep</text>
</a>
</g>
</g>
<!-- rapidsim&#45;&gt;ostaphep -->
<!-- lhcb&#45;simpletools -->
<g id="node4" class="node">
<title>lhcb&#45;simpletools</title>
<g id="a_node4"><a xlink:href="https://github.com/conda-forge/lhcb-simpletools-feedstock" xlink:title="lhcb simpletools">
<ellipse fill="#35b779" stroke="black" cx="109.61" cy="-422" rx="92.77" ry="18"/>
<text text-anchor="middle" x="109.61" y="-417.32" font-family="Times,serif" font-size="14.00">lhcb simpletools</text>
</a>
</g>
</g>
<!-- ostaphep&#45;&gt;lhcb&#45;simpletools -->
<!-- hammer -->
<g id="node5" class="node">
<title>hammer</title>
<g id="a_node5"><a xlink:href="https://github.com/conda-forge/hammer-feedstock" xlink:title="hammer">
<ellipse fill="#fde725" stroke="black" cx="109.61" cy="-350" rx="52.79" ry="18"/>
<text text-anchor="middle" x="109.61" y="-345.32" font-family="Times,serif" font-size="14.00">hammer</text>
</a>
</g>
</g>
<!-- lhcb&#45;simpletools&#45;&gt;hammer -->
<!-- yoda -->
<g id="node10" class="node">
<title>yoda</title>
<g id="a_node10"><a xlink:href="https://github.com/conda-forge/yoda-feedstock" xlink:title="yoda">
<ellipse fill="#fde725" stroke="black" cx="109.61" cy="-278" rx="34.9" ry="18"/>
<text text-anchor="middle" x="109.61" y="-273.32" font-family="Times,serif" font-size="14.00">yoda</text>
</a>
</g>
</g>
<!-- hammer&#45;&gt;yoda -->
<!-- gwollum -->
<g id="node6" class="node">
<title>gwollum</title>
<g id="a_node6"><a xlink:href="https://github.com/conda-forge/gwollum-feedstock" xlink:title="gwollum">
<ellipse fill="#35b779" stroke="black" cx="339.61" cy="-494" rx="53.84" ry="18"/>
<text text-anchor="middle" x="339.61" y="-489.32" font-family="Times,serif" font-size="14.00">gwollum</text>
</a>
</g>
</g>
<!-- omicron -->
<g id="node7" class="node">
<title>omicron</title>
<g id="a_node7"><a xlink:href="https://github.com/conda-forge/omicron-feedstock" xlink:title="omicron">
<ellipse fill="#fde725" stroke="black" cx="339.61" cy="-422" rx="51.74" ry="18"/>
<text text-anchor="middle" x="339.61" y="-417.32" font-family="Times,serif" font-size="14.00">omicron</text>
</a>
</g>
</g>
<!-- gwollum&#45;&gt;omicron -->
<g id="edge5" class="edge">
<title>gwollum&#45;&gt;omicron</title>
<path fill="none" stroke="black" d="M339.61,-475.7C339.61,-468.41 339.61,-459.73 339.61,-451.54"/>
<polygon fill="black" stroke="black" points="343.11,-451.62 339.61,-441.62 336.11,-451.62 343.11,-451.62"/>
</g>
<!-- vetoperf -->
<g id="node8" class="node">
<title>vetoperf</title>
<g id="a_node8"><a xlink:href="https://github.com/conda-forge/vetoperf-feedstock" xlink:title="vetoperf">
<ellipse fill="#fde725" stroke="black" cx="280.61" cy="-350" rx="53.31" ry="18"/>
<text text-anchor="middle" x="280.61" y="-345.32" font-family="Times,serif" font-size="14.00">vetoperf</text>
</a>
</g>
</g>
<!-- gwollum&#45;&gt;vetoperf -->
<g id="edge6" class="edge">
<title>gwollum&#45;&gt;vetoperf</title>
<path fill="none" stroke="black" d="M313.43,-477.88C300.36,-468.76 285.82,-455.83 278.61,-440 270.02,-421.17 270.96,-397.69 273.82,-379.58"/>
<polygon fill="black" stroke="black" points="277.25,-380.25 275.66,-369.77 270.37,-378.95 277.25,-380.25"/>
</g>
<!-- upv -->
<g id="node9" class="node">
<title>upv</title>
<g id="a_node9"><a xlink:href="https://github.com/conda-forge/upv-feedstock" xlink:title="upv">
<ellipse fill="#fde725" stroke="black" cx="361.61" cy="-278" rx="29.64" ry="18"/>
<text text-anchor="middle" x="361.61" y="-273.32" font-family="Times,serif" font-size="14.00">upv</text>
</a>
</g>
</g>
<!-- gwollum&#45;&gt;upv -->
<g id="edge7" class="edge">
<title>gwollum&#45;&gt;upv</title>
<path fill="none" stroke="black" d="M365.78,-477.88C378.85,-468.76 393.39,-455.83 400.61,-440 421.17,-394.9 396.37,-337.55 377.96,-304.89"/>
<polygon fill="black" stroke="black" points="381.12,-303.36 373.04,-296.51 375.09,-306.9 381.12,-303.36"/>
</g>
<!-- omicron&#45;&gt;vetoperf -->
<g id="edge8" class="edge">
<title>omicron&#45;&gt;vetoperf</title>
<path fill="none" stroke="black" d="M325.62,-404.41C318.5,-395.95 309.68,-385.49 301.74,-376.08"/>
<polygon fill="black" stroke="black" points="304.58,-374.02 295.46,-368.63 299.23,-378.53 304.58,-374.02"/>
</g>
<!-- omicron&#45;&gt;upv -->
<g id="edge9" class="edge">
<title>omicron&#45;&gt;upv</title>
<path fill="none" stroke="black" d="M342.3,-403.59C346.02,-379.61 352.75,-336.14 357.2,-307.42"/>
<polygon fill="black" stroke="black" points="360.65,-308.02 358.72,-297.61 353.73,-306.95 360.65,-308.02"/>
</g>
<!-- vetoperf&#45;&gt;upv -->
<g id="edge10" class="edge">
<title>vetoperf&#45;&gt;upv</title>
<path fill="none" stroke="black" d="M299.39,-332.76C310.42,-323.24 324.49,-311.08 336.46,-300.73"/>
<polygon fill="black" stroke="black" points="338.69,-303.43 343.97,-294.24 334.12,-298.13 338.69,-303.43"/>
</g>
<!-- cwb -->
<g id="node11" class="node">
<title>cwb</title>
<g id="a_node11"><a xlink:href="https://github.com/conda-forge/cwb-feedstock" xlink:title="cwb">
<ellipse fill="#35b779" stroke="black" cx="109.61" cy="-206" rx="31.22" ry="18"/>
<text text-anchor="middle" x="109.61" y="-201.33" font-family="Times,serif" font-size="14.00">cwb</text>
</a>
</g>
</g>
<!-- yoda&#45;&gt;cwb -->
<!-- delphes -->
<g id="node16" class="node">
<title>delphes</title>
<g id="a_node16"><a xlink:href="https://github.com/conda-forge/delphes-feedstock" xlink:title="delphes">
<ellipse fill="#35b779" stroke="black" cx="109.61" cy="-134" rx="50.16" ry="18"/>
<text text-anchor="middle" x="109.61" y="-129.32" font-family="Times,serif" font-size="14.00">delphes</text>
</a>
</g>
</g>
<!-- cwb&#45;&gt;delphes -->
<!-- gds&#45;root&#45;extensions -->
<g id="node12" class="node">
<title>gds&#45;root&#45;extensions</title>
<g id="a_node12"><a xlink:href="https://github.com/conda-forge/gds-root-extensions-feedstock" xlink:title="gds root extensions">
<ellipse fill="#35b779" stroke="black" cx="109.61" cy="-90" rx="109.61" ry="18"/>
<text text-anchor="middle" x="109.61" y="-85.33" font-family="Times,serif" font-size="14.00">gds root extensions</text>
</a>
</g>
</g>
<!-- cds&#45;crtools -->
<g id="node13" class="node">
<title>cds&#45;crtools</title>
<g id="a_node13"><a xlink:href="https://github.com/conda-forge/cds-crtools-feedstock" xlink:title="cds crtools">
<ellipse fill="#fde725" stroke="black" cx="109.61" cy="-18" rx="65.41" ry="18"/>
<text text-anchor="middle" x="109.61" y="-13.32" font-family="Times,serif" font-size="14.00">cds crtools</text>
</a>
</g>
</g>
<!-- gds&#45;root&#45;extensions&#45;&gt;cds&#45;crtools -->
<g id="edge13" class="edge">
<title>gds&#45;root&#45;extensions&#45;&gt;cds&#45;crtools</title>
<path fill="none" stroke="black" d="M109.61,-71.7C109.61,-64.41 109.61,-55.73 109.61,-47.54"/>
<polygon fill="black" stroke="black" points="113.11,-47.62 109.61,-37.62 106.11,-47.62 113.11,-47.62"/>
</g>
<!-- gds&#45;gui -->
<g id="node14" class="node">
<title>gds&#45;gui</title>
<g id="a_node14"><a xlink:href="https://github.com/conda-forge/gds-gui-feedstock" xlink:title="gds gui">
<ellipse fill="#35b779" stroke="black" cx="565.61" cy="-386" rx="48.05" ry="18"/>
<text text-anchor="middle" x="565.61" y="-381.32" font-family="Times,serif" font-size="14.00">gds gui</text>
</a>
</g>
</g>
<!-- gds&#45;monitor&#45;apps -->
<g id="node15" class="node">
<title>gds&#45;monitor&#45;apps</title>
<g id="a_node15"><a xlink:href="https://github.com/conda-forge/gds-monitor-apps-feedstock" xlink:title="gds monitor apps">
<ellipse fill="#fde725" stroke="black" cx="527.61" cy="-314" rx="98.56" ry="18"/>
<text text-anchor="middle" x="527.61" y="-309.32" font-family="Times,serif" font-size="14.00">gds monitor apps</text>
</a>
</g>
</g>
<!-- gds&#45;gui&#45;&gt;gds&#45;monitor&#45;apps -->
<g id="edge14" class="edge">
<title>gds&#45;gui&#45;&gt;gds&#45;monitor&#45;apps</title>
<path fill="none" stroke="black" d="M556.41,-368.05C552.22,-360.35 547.16,-351.03 542.46,-342.36"/>
<polygon fill="black" stroke="black" points="545.55,-340.72 537.71,-333.61 539.4,-344.06 545.55,-340.72"/>
</g>
<!-- gds&#45;dmt -->
<g id="node17" class="node">
<title>gds&#45;dmt</title>
<g id="a_node17"><a xlink:href="https://github.com/conda-forge/gds-dmt-feedstock" xlink:title="gds dmt">
<ellipse fill="#35b779" stroke="black" cx="489.61" cy="-458" rx="52.26" ry="18"/>
<text text-anchor="middle" x="489.61" y="-453.32" font-family="Times,serif" font-size="14.00">gds dmt</text>
</a>
</g>
</g>
<!-- gds&#45;dmt&#45;&gt;gds&#45;monitor&#45;apps -->
<g id="edge16" class="edge">
<title>gds&#45;dmt&#45;&gt;gds&#45;monitor&#45;apps</title>
<path fill="none" stroke="black" d="M492.58,-439.77C495.85,-421.72 501.6,-392.62 508.61,-368 510.97,-359.69 513.97,-350.81 516.88,-342.73"/>
<polygon fill="black" stroke="black" points="520.13,-344.01 520.33,-333.42 513.57,-341.57 520.13,-344.01"/>
</g>
</g>
</svg>
