<?xml version="1.0" encoding="UTF-8" standalone="no"?>
<!DOCTYPE svg PUBLIC "-//W3C//DTD SVG 1.1//EN"
 "http://www.w3.org/Graphics/SVG/1.1/DTD/svg11.dtd">
<!-- Generated by graphviz version 12.2.1 (20250203.1708)
 -->
<!-- Pages: 1 -->
<svg width="543pt" height="232pt"
 viewBox="0.00 0.00 542.98 232.00" xmlns="http://www.w3.org/2000/svg" xmlns:xlink="http://www.w3.org/1999/xlink">
<g id="graph0" class="graph" transform="scale(1 1) rotate(0) translate(4 228)">
<polygon fill="white" stroke="none" points="-4,4 -4,-228 538.98,-228 538.98,4 -4,4"/>
<!-- rapidsim -->
<g id="node1" class="node">
<title>rapidsim</title>
<g id="a_node1"><a xlink:href="https://github.com/conda-forge/rapidsim-feedstock/pull/30" xlink:title="rapidsim ✓">
<ellipse fill="#31688e" stroke="black" cx="80.31" cy="-18" rx="63.31" ry="18"/>
<text text-anchor="middle" x="80.31" y="-13.32" font-family="Times,serif" font-size="14.00" fill="white">rapidsim ✓</text>
</a>
</g>
</g>
<!-- omicron -->
<g id="node2" class="node">
<title>omicron</title>
<g id="a_node2"><a xlink:href="https://github.com/conda-forge/omicron-feedstock/pull/44" xlink:title="omicron ❎">
<ellipse fill="#31688e" stroke="black" cx="93.31" cy="-206" rx="66.99" ry="18"/>
<text text-anchor="middle" x="93.31" y="-201.32" font-family="Times,serif" font-size="14.00" fill="white">omicron ❎</text>
</a>
</g>
</g>
<!-- vetoperf -->
<g id="node6" class="node">
<title>vetoperf</title>
<g id="a_node6"><a xlink:href="https://github.com/conda-forge/vetoperf-feedstock" xlink:title="vetoperf">
<ellipse fill="#fde725" stroke="black" cx="53.31" cy="-134" rx="53.31" ry="18"/>
<text text-anchor="middle" x="53.31" y="-129.32" font-family="Times,serif" font-size="14.00">vetoperf</text>
</a>
</g>
</g>
<!-- omicron&#45;&gt;vetoperf -->
<g id="edge2" class="edge">
<title>omicron&#45;&gt;vetoperf</title>
<path fill="none" stroke="black" d="M83.63,-188.05C79.11,-180.14 73.62,-170.54 68.56,-161.69"/>
<polygon fill="black" stroke="black" points="71.66,-160.05 63.66,-153.1 65.58,-163.52 71.66,-160.05"/>
</g>
<!-- upv -->
<g id="node7" class="node">
<title>upv</title>
<g id="a_node7"><a xlink:href="https://github.com/conda-forge/upv-feedstock" xlink:title="upv">
<ellipse fill="#fde725" stroke="black" cx="93.31" cy="-62" rx="29.64" ry="18"/>
<text text-anchor="middle" x="93.31" y="-57.33" font-family="Times,serif" font-size="14.00">upv</text>
</a>
</g>
</g>
<!-- omicron&#45;&gt;upv -->
<g id="edge1" class="edge">
<title>omicron&#45;&gt;upv</title>
<path fill="none" stroke="black" d="M102.44,-187.88C107.32,-177.76 112.82,-164.51 115.31,-152 118.44,-136.31 118.44,-131.69 115.31,-116 113.57,-107.27 110.37,-98.17 106.93,-90.03"/>
<polygon fill="black" stroke="black" points="110.16,-88.69 102.84,-81.03 103.79,-91.58 110.16,-88.69"/>
</g>
<!-- hammer -->
<g id="node3" class="node">
<title>hammer</title>
<g id="a_node3"><a xlink:href="https://github.com/conda-forge/hammer-feedstock/pull/53" xlink:title="hammer ✓">
<ellipse fill="#31688e" stroke="black" cx="267.31" cy="-18" rx="60.68" ry="18"/>
<text text-anchor="middle" x="267.31" y="-13.32" font-family="Times,serif" font-size="14.00" fill="white">hammer ✓</text>
</a>
</g>
</g>
<!-- yoda -->
<g id="node4" class="node">
<title>yoda</title>
<g id="a_node4"><a xlink:href="https://github.com/conda-forge/yoda-feedstock/pull/47" xlink:title="yoda ❎">
<ellipse fill="#31688e" stroke="black" cx="454.31" cy="-18" rx="50.16" ry="18"/>
<text text-anchor="middle" x="454.31" y="-13.32" font-family="Times,serif" font-size="14.00" fill="white">yoda ❎</text>
</a>
</g>
</g>
<!-- cds&#45;crtools -->
<g id="node5" class="node">
<title>cds&#45;crtools</title>
<g id="a_node5"><a xlink:href="https://github.com/conda-forge/cds-crtools-feedstock/pull/88" xlink:title="cds crtools ❎">
<ellipse fill="#31688e" stroke="black" cx="454.31" cy="-134" rx="80.67" ry="18"/>
<text text-anchor="middle" x="454.31" y="-129.32" font-family="Times,serif" font-size="14.00" fill="white">cds crtools ❎</text>
</a>
</g>
</g>
<!-- vetoperf&#45;&gt;upv -->
<g id="edge3" class="edge">
<title>vetoperf&#45;&gt;upv</title>
<path fill="none" stroke="black" d="M63,-116.05C67.58,-108.03 73.17,-98.26 78.29,-89.3"/>
<polygon fill="black" stroke="black" points="81.32,-91.04 83.24,-80.62 75.24,-87.57 81.32,-91.04"/>
</g>
<!-- gds&#45;monitor&#45;apps -->
<g id="node8" class="node">
<title>gds&#45;monitor&#45;apps</title>
<g id="a_node8"><a xlink:href="https://github.com/conda-forge/gds-monitor-apps-feedstock" xlink:title="gds monitor apps">
<ellipse fill="#ff8c00" stroke="black" cx="267.31" cy="-134" rx="98.56" ry="18"/>
<text text-anchor="middle" x="267.31" y="-129.32" font-family="Times,serif" font-size="14.00">gds monitor apps</text>
</a>
</g>
</g>
</g>
</svg>
