<?xml version="1.0" encoding="UTF-8" standalone="no"?>
<!DOCTYPE svg PUBLIC "-//W3C//DTD SVG 1.1//EN"
 "http://www.w3.org/Graphics/SVG/1.1/DTD/svg11.dtd">
<!-- Generated by graphviz version 12.2.1 (20250203.1708)
 -->
<!-- Pages: 1 -->
<svg width="689pt" height="664pt"
 viewBox="0.00 0.00 689.17 664.00" xmlns="http://www.w3.org/2000/svg" xmlns:xlink="http://www.w3.org/1999/xlink">
<g id="graph0" class="graph" transform="scale(1 1) rotate(0) translate(4 660)">
<polygon fill="white" stroke="none" points="-4,4 -4,-660 685.17,-660 685.17,4 -4,4"/>
<!-- stir -->
<g id="node1" class="node">
<title>stir</title>
<g id="a_node1"><a xlink:href="https://github.com/conda-forge/stir-feedstock/pull/129" xlink:title="stir ❎">
<ellipse fill="#31688e" stroke="black" cx="124.86" cy="-638" rx="43.84" ry="18"/>
<text text-anchor="middle" x="124.86" y="-633.33" font-family="Times,serif" font-size="14.00" fill="white">stir ❎</text>
</a>
</g>
</g>
<!-- rapidsim -->
<g id="node2" class="node">
<title>rapidsim</title>
<g id="a_node2"><a xlink:href="https://github.com/conda-forge/rapidsim-feedstock" xlink:title="rapidsim">
<ellipse fill="#fde725" stroke="black" cx="124.86" cy="-566" rx="55.42" ry="18"/>
<text text-anchor="middle" x="124.86" y="-561.33" font-family="Times,serif" font-size="14.00">rapidsim</text>
</a>
</g>
</g>
<!-- stir&#45;&gt;rapidsim -->
<!-- ostaphep -->
<g id="node3" class="node">
<title>ostaphep</title>
<g id="a_node3"><a xlink:href="https://github.com/conda-forge/ostaphep-feedstock/pull/149" xlink:title="ostaphep ❎">
<ellipse fill="#31688e" stroke="black" cx="124.86" cy="-494" rx="72.25" ry="18"/>
<text text-anchor="middle" x="124.86" y="-489.32" font-family="Times,serif" font-size="14.00" fill="white">ostaphep ❎</text>
</a>
</g>
</g>
<!-- rapidsim&#45;&gt;ostaphep -->
<!-- lhcb&#45;simpletools -->
<g id="node4" class="node">
<title>lhcb&#45;simpletools</title>
<g id="a_node4"><a xlink:href="https://github.com/conda-forge/lhcb-simpletools-feedstock" xlink:title="lhcb simpletools">
<ellipse fill="#35b779" stroke="black" cx="124.86" cy="-422" rx="92.77" ry="18"/>
<text text-anchor="middle" x="124.86" y="-417.32" font-family="Times,serif" font-size="14.00">lhcb simpletools</text>
</a>
</g>
</g>
<!-- ostaphep&#45;&gt;lhcb&#45;simpletools -->
<!-- hammer -->
<g id="node5" class="node">
<title>hammer</title>
<g id="a_node5"><a xlink:href="https://github.com/conda-forge/hammer-feedstock" xlink:title="hammer">
<ellipse fill="#fde725" stroke="black" cx="124.86" cy="-350" rx="52.79" ry="18"/>
<text text-anchor="middle" x="124.86" y="-345.32" font-family="Times,serif" font-size="14.00">hammer</text>
</a>
</g>
</g>
<!-- lhcb&#45;simpletools&#45;&gt;hammer -->
<!-- yoda -->
<g id="node10" class="node">
<title>yoda</title>
<g id="a_node10"><a xlink:href="https://github.com/conda-forge/yoda-feedstock" xlink:title="yoda">
<ellipse fill="#fde725" stroke="black" cx="124.86" cy="-278" rx="34.9" ry="18"/>
<text text-anchor="middle" x="124.86" y="-273.32" font-family="Times,serif" font-size="14.00">yoda</text>
</a>
</g>
</g>
<!-- hammer&#45;&gt;yoda -->
<!-- gwollum -->
<g id="node6" class="node">
<title>gwollum</title>
<g id="a_node6"><a xlink:href="https://github.com/conda-forge/gwollum-feedstock/pull/64" xlink:title="gwollum ❎">
<ellipse fill="#31688e" stroke="black" cx="369.86" cy="-494" rx="69.1" ry="18"/>
<text text-anchor="middle" x="369.86" y="-489.32" font-family="Times,serif" font-size="14.00" fill="white">gwollum ❎</text>
</a>
</g>
</g>
<!-- omicron -->
<g id="node7" class="node">
<title>omicron</title>
<g id="a_node7"><a xlink:href="https://github.com/conda-forge/omicron-feedstock" xlink:title="omicron">
<ellipse fill="#fde725" stroke="black" cx="369.86" cy="-422" rx="51.74" ry="18"/>
<text text-anchor="middle" x="369.86" y="-417.32" font-family="Times,serif" font-size="14.00">omicron</text>
</a>
</g>
</g>
<!-- gwollum&#45;&gt;omicron -->
<g id="edge5" class="edge">
<title>gwollum&#45;&gt;omicron</title>
<path fill="none" stroke="black" d="M369.86,-475.7C369.86,-468.41 369.86,-459.73 369.86,-451.54"/>
<polygon fill="black" stroke="black" points="373.36,-451.62 369.86,-441.62 366.36,-451.62 373.36,-451.62"/>
</g>
<!-- vetoperf -->
<g id="node8" class="node">
<title>vetoperf</title>
<g id="a_node8"><a xlink:href="https://github.com/conda-forge/vetoperf-feedstock" xlink:title="vetoperf">
<ellipse fill="#fde725" stroke="black" cx="310.86" cy="-350" rx="53.31" ry="18"/>
<text text-anchor="middle" x="310.86" y="-345.32" font-family="Times,serif" font-size="14.00">vetoperf</text>
</a>
</g>
</g>
<!-- gwollum&#45;&gt;vetoperf -->
<g id="edge6" class="edge">
<title>gwollum&#45;&gt;vetoperf</title>
<path fill="none" stroke="black" d="M342.74,-477.21C329.92,-468.13 315.9,-455.45 308.86,-440 300.28,-421.17 301.22,-397.69 304.07,-379.58"/>
<polygon fill="black" stroke="black" points="307.51,-380.25 305.92,-369.77 300.63,-378.95 307.51,-380.25"/>
</g>
<!-- upv -->
<g id="node9" class="node">
<title>upv</title>
<g id="a_node9"><a xlink:href="https://github.com/conda-forge/upv-feedstock" xlink:title="upv">
<ellipse fill="#fde725" stroke="black" cx="391.86" cy="-278" rx="29.64" ry="18"/>
<text text-anchor="middle" x="391.86" y="-273.32" font-family="Times,serif" font-size="14.00">upv</text>
</a>
</g>
</g>
<!-- gwollum&#45;&gt;upv -->
<g id="edge7" class="edge">
<title>gwollum&#45;&gt;upv</title>
<path fill="none" stroke="black" d="M396.99,-477.21C409.81,-468.13 423.82,-455.45 430.86,-440 451.42,-394.9 426.62,-337.55 408.22,-304.89"/>
<polygon fill="black" stroke="black" points="411.38,-303.36 403.3,-296.51 405.34,-306.9 411.38,-303.36"/>
</g>
<!-- omicron&#45;&gt;vetoperf -->
<g id="edge8" class="edge">
<title>omicron&#45;&gt;vetoperf</title>
<path fill="none" stroke="black" d="M355.88,-404.41C348.75,-395.95 339.94,-385.49 332,-376.08"/>
<polygon fill="black" stroke="black" points="334.84,-374.02 325.72,-368.63 329.49,-378.53 334.84,-374.02"/>
</g>
<!-- omicron&#45;&gt;upv -->
<g id="edge9" class="edge">
<title>omicron&#45;&gt;upv</title>
<path fill="none" stroke="black" d="M372.56,-403.59C376.28,-379.61 383.01,-336.14 387.46,-307.42"/>
<polygon fill="black" stroke="black" points="390.91,-308.02 388.98,-297.61 383.99,-306.95 390.91,-308.02"/>
</g>
<!-- vetoperf&#45;&gt;upv -->
<g id="edge10" class="edge">
<title>vetoperf&#45;&gt;upv</title>
<path fill="none" stroke="black" d="M329.65,-332.76C340.67,-323.24 354.74,-311.08 366.71,-300.73"/>
<polygon fill="black" stroke="black" points="368.95,-303.43 374.23,-294.24 364.37,-298.13 368.95,-303.43"/>
</g>
<!-- cwb -->
<g id="node11" class="node">
<title>cwb</title>
<g id="a_node11"><a xlink:href="https://github.com/conda-forge/cwb-feedstock/pull/31" xlink:title="cwb ❎">
<ellipse fill="#31688e" stroke="black" cx="124.86" cy="-206" rx="46.47" ry="18"/>
<text text-anchor="middle" x="124.86" y="-201.33" font-family="Times,serif" font-size="14.00" fill="white">cwb ❎</text>
</a>
</g>
</g>
<!-- yoda&#45;&gt;cwb -->
<!-- delphes -->
<g id="node16" class="node">
<title>delphes</title>
<g id="a_node16"><a xlink:href="https://github.com/conda-forge/delphes-feedstock/pull/8" xlink:title="delphes ❎">
<ellipse fill="#31688e" stroke="black" cx="124.86" cy="-134" rx="65.41" ry="18"/>
<text text-anchor="middle" x="124.86" y="-129.32" font-family="Times,serif" font-size="14.00" fill="white">delphes ❎</text>
</a>
</g>
</g>
<!-- cwb&#45;&gt;delphes -->
<!-- gds&#45;root&#45;extensions -->
<g id="node12" class="node">
<title>gds&#45;root&#45;extensions</title>
<g id="a_node12"><a xlink:href="https://github.com/conda-forge/gds-root-extensions-feedstock/pull/36" xlink:title="gds root extensions ❎">
<ellipse fill="#31688e" stroke="black" cx="124.86" cy="-90" rx="124.86" ry="18"/>
<text text-anchor="middle" x="124.86" y="-85.33" font-family="Times,serif" font-size="14.00" fill="white">gds root extensions ❎</text>
</a>
</g>
</g>
<!-- cds&#45;crtools -->
<g id="node13" class="node">
<title>cds&#45;crtools</title>
<g id="a_node13"><a xlink:href="https://github.com/conda-forge/cds-crtools-feedstock" xlink:title="cds crtools">
<ellipse fill="#fde725" stroke="black" cx="124.86" cy="-18" rx="65.41" ry="18"/>
<text text-anchor="middle" x="124.86" y="-13.32" font-family="Times,serif" font-size="14.00">cds crtools</text>
</a>
</g>
</g>
<!-- gds&#45;root&#45;extensions&#45;&gt;cds&#45;crtools -->
<g id="edge13" class="edge">
<title>gds&#45;root&#45;extensions&#45;&gt;cds&#45;crtools</title>
<path fill="none" stroke="black" d="M124.86,-71.7C124.86,-64.41 124.86,-55.73 124.86,-47.54"/>
<polygon fill="black" stroke="black" points="128.36,-47.62 124.86,-37.62 121.36,-47.62 128.36,-47.62"/>
</g>
<!-- gds&#45;gui -->
<g id="node14" class="node">
<title>gds&#45;gui</title>
<g id="a_node14"><a xlink:href="https://github.com/conda-forge/gds-gui-feedstock/pull/27" xlink:title="gds gui ❎">
<ellipse fill="#31688e" stroke="black" cx="617.86" cy="-386" rx="63.31" ry="18"/>
<text text-anchor="middle" x="617.86" y="-381.32" font-family="Times,serif" font-size="14.00" fill="white">gds gui ❎</text>
</a>
</g>
</g>
<!-- gds&#45;monitor&#45;apps -->
<g id="node15" class="node">
<title>gds&#45;monitor&#45;apps</title>
<g id="a_node15"><a xlink:href="https://github.com/conda-forge/gds-monitor-apps-feedstock" xlink:title="gds monitor apps">
<ellipse fill="#fde725" stroke="black" cx="571.86" cy="-314" rx="98.56" ry="18"/>
<text text-anchor="middle" x="571.86" y="-309.32" font-family="Times,serif" font-size="14.00">gds monitor apps</text>
</a>
</g>
</g>
<!-- gds&#45;gui&#45;&gt;gds&#45;monitor&#45;apps -->
<g id="edge14" class="edge">
<title>gds&#45;gui&#45;&gt;gds&#45;monitor&#45;apps</title>
<path fill="none" stroke="black" d="M606.73,-368.05C601.55,-360.18 595.27,-350.62 589.47,-341.79"/>
<polygon fill="black" stroke="black" points="592.46,-339.98 584.05,-333.54 586.61,-343.82 592.46,-339.98"/>
</g>
<!-- gds&#45;dmt -->
<g id="node17" class="node">
<title>gds&#45;dmt</title>
<g id="a_node17"><a xlink:href="https://github.com/conda-forge/gds-dmt-feedstock/pull/10" xlink:title="gds dmt ❎">
<ellipse fill="#31688e" stroke="black" cx="526.86" cy="-458" rx="67.52" ry="18"/>
<text text-anchor="middle" x="526.86" y="-453.32" font-family="Times,serif" font-size="14.00" fill="white">gds dmt ❎</text>
</a>
</g>
</g>
<!-- gds&#45;dmt&#45;&gt;gds&#45;monitor&#45;apps -->
<g id="edge16" class="edge">
<title>gds&#45;dmt&#45;&gt;gds&#45;monitor&#45;apps</title>
<path fill="none" stroke="black" d="M529.28,-439.6C532.11,-421.4 537.49,-392.19 545.86,-368 548.85,-359.38 552.9,-350.35 556.91,-342.23"/>
<polygon fill="black" stroke="black" points="559.92,-344.04 561.39,-333.55 553.7,-340.83 559.92,-344.04"/>
</g>
</g>
</svg>
