<?xml version="1.0" encoding="UTF-8" standalone="no"?>
<!DOCTYPE svg PUBLIC "-//W3C//DTD SVG 1.1//EN"
 "http://www.w3.org/Graphics/SVG/1.1/DTD/svg11.dtd">
<!-- Generated by graphviz version 12.2.1 (20250203.1708)
 -->
<!-- Pages: 1 -->
<svg width="650pt" height="664pt"
 viewBox="0.00 0.00 650.06 664.00" xmlns="http://www.w3.org/2000/svg" xmlns:xlink="http://www.w3.org/1999/xlink">
<g id="graph0" class="graph" transform="scale(1 1) rotate(0) translate(4 660)">
<polygon fill="white" stroke="none" points="-4,4 -4,-660 646.06,-660 646.06,4 -4,4"/>
<!-- stir -->
<g id="node1" class="node">
<title>stir</title>
<g id="a_node1"><a xlink:href="https://github.com/conda-forge/stir-feedstock" xlink:title="stir">
<ellipse fill="#ff8c00" stroke="black" cx="117.5" cy="-638" rx="28.59" ry="18"/>
<text text-anchor="middle" x="117.5" y="-633.33" font-family="Times,serif" font-size="14.00">stir</text>
</a>
</g>
</g>
<!-- rapidsim -->
<g id="node2" class="node">
<title>rapidsim</title>
<g id="a_node2"><a xlink:href="https://github.com/conda-forge/rapidsim-feedstock" xlink:title="rapidsim">
<ellipse fill="#ff8c00" stroke="black" cx="117.5" cy="-566" rx="55.42" ry="18"/>
<text text-anchor="middle" x="117.5" y="-561.33" font-family="Times,serif" font-size="14.00">rapidsim</text>
</a>
</g>
</g>
<!-- stir&#45;&gt;rapidsim -->
<!-- ostaphep -->
<g id="node3" class="node">
<title>ostaphep</title>
<g id="a_node3"><a xlink:href="https://github.com/conda-forge/ostaphep-feedstock" xlink:title="ostaphep">
<ellipse fill="#ff8c00" stroke="black" cx="117.5" cy="-494" rx="57" ry="18"/>
<text text-anchor="middle" x="117.5" y="-489.32" font-family="Times,serif" font-size="14.00">ostaphep</text>
</a>
</g>
</g>
<!-- rapidsim&#45;&gt;ostaphep -->
<!-- lhcb&#45;simpletools -->
<g id="node4" class="node">
<title>lhcb&#45;simpletools</title>
<g id="a_node4"><a xlink:href="https://github.com/conda-forge/lhcb-simpletools-feedstock" xlink:title="lhcb simpletools">
<ellipse fill="#ff8c00" stroke="black" cx="117.5" cy="-422" rx="92.77" ry="18"/>
<text text-anchor="middle" x="117.5" y="-417.32" font-family="Times,serif" font-size="14.00">lhcb simpletools</text>
</a>
</g>
</g>
<!-- ostaphep&#45;&gt;lhcb&#45;simpletools -->
<!-- hammer -->
<g id="node5" class="node">
<title>hammer</title>
<g id="a_node5"><a xlink:href="https://github.com/conda-forge/hammer-feedstock" xlink:title="hammer">
<ellipse fill="#ff8c00" stroke="black" cx="117.5" cy="-350" rx="52.79" ry="18"/>
<text text-anchor="middle" x="117.5" y="-345.32" font-family="Times,serif" font-size="14.00">hammer</text>
</a>
</g>
</g>
<!-- lhcb&#45;simpletools&#45;&gt;hammer -->
<!-- yoda -->
<g id="node10" class="node">
<title>yoda</title>
<g id="a_node10"><a xlink:href="https://github.com/conda-forge/yoda-feedstock" xlink:title="yoda">
<ellipse fill="#ff8c00" stroke="black" cx="117.5" cy="-278" rx="34.9" ry="18"/>
<text text-anchor="middle" x="117.5" y="-273.32" font-family="Times,serif" font-size="14.00">yoda</text>
</a>
</g>
</g>
<!-- hammer&#45;&gt;yoda -->
<!-- gwollum -->
<g id="node6" class="node">
<title>gwollum</title>
<g id="a_node6"><a xlink:href="https://github.com/conda-forge/gwollum-feedstock" xlink:title="gwollum">
<ellipse fill="#ff8c00" stroke="black" cx="355.5" cy="-494" rx="53.84" ry="18"/>
<text text-anchor="middle" x="355.5" y="-489.32" font-family="Times,serif" font-size="14.00">gwollum</text>
</a>
</g>
</g>
<!-- omicron -->
<g id="node7" class="node">
<title>omicron</title>
<g id="a_node7"><a xlink:href="https://github.com/conda-forge/omicron-feedstock" xlink:title="omicron">
<ellipse fill="#fde725" stroke="black" cx="355.5" cy="-422" rx="51.74" ry="18"/>
<text text-anchor="middle" x="355.5" y="-417.32" font-family="Times,serif" font-size="14.00">omicron</text>
</a>
</g>
</g>
<!-- gwollum&#45;&gt;omicron -->
<g id="edge5" class="edge">
<title>gwollum&#45;&gt;omicron</title>
<path fill="none" stroke="black" d="M355.5,-475.7C355.5,-468.41 355.5,-459.73 355.5,-451.54"/>
<polygon fill="black" stroke="black" points="359,-451.62 355.5,-441.62 352,-451.62 359,-451.62"/>
</g>
<!-- vetoperf -->
<g id="node8" class="node">
<title>vetoperf</title>
<g id="a_node8"><a xlink:href="https://github.com/conda-forge/vetoperf-feedstock" xlink:title="vetoperf">
<ellipse fill="#fde725" stroke="black" cx="296.5" cy="-350" rx="53.31" ry="18"/>
<text text-anchor="middle" x="296.5" y="-345.32" font-family="Times,serif" font-size="14.00">vetoperf</text>
</a>
</g>
</g>
<!-- gwollum&#45;&gt;vetoperf -->
<g id="edge6" class="edge">
<title>gwollum&#45;&gt;vetoperf</title>
<path fill="none" stroke="black" d="M329.32,-477.88C316.25,-468.76 301.71,-455.83 294.5,-440 285.91,-421.17 286.86,-397.69 289.71,-379.58"/>
<polygon fill="black" stroke="black" points="293.14,-380.25 291.55,-369.77 286.26,-378.95 293.14,-380.25"/>
</g>
<!-- upv -->
<g id="node9" class="node">
<title>upv</title>
<g id="a_node9"><a xlink:href="https://github.com/conda-forge/upv-feedstock" xlink:title="upv">
<ellipse fill="#fde725" stroke="black" cx="377.5" cy="-278" rx="29.64" ry="18"/>
<text text-anchor="middle" x="377.5" y="-273.32" font-family="Times,serif" font-size="14.00">upv</text>
</a>
</g>
</g>
<!-- gwollum&#45;&gt;upv -->
<g id="edge7" class="edge">
<title>gwollum&#45;&gt;upv</title>
<path fill="none" stroke="black" d="M381.67,-477.88C394.74,-468.76 409.28,-455.83 416.5,-440 437.06,-394.9 412.26,-337.55 393.86,-304.89"/>
<polygon fill="black" stroke="black" points="397.02,-303.36 388.94,-296.51 390.98,-306.9 397.02,-303.36"/>
</g>
<!-- omicron&#45;&gt;vetoperf -->
<g id="edge8" class="edge">
<title>omicron&#45;&gt;vetoperf</title>
<path fill="none" stroke="black" d="M341.52,-404.41C334.39,-395.95 325.57,-385.49 317.64,-376.08"/>
<polygon fill="black" stroke="black" points="320.48,-374.02 311.36,-368.63 315.12,-378.53 320.48,-374.02"/>
</g>
<!-- omicron&#45;&gt;upv -->
<g id="edge9" class="edge">
<title>omicron&#45;&gt;upv</title>
<path fill="none" stroke="black" d="M358.2,-403.59C361.91,-379.61 368.64,-336.14 373.1,-307.42"/>
<polygon fill="black" stroke="black" points="376.54,-308.02 374.62,-297.61 369.63,-306.95 376.54,-308.02"/>
</g>
<!-- vetoperf&#45;&gt;upv -->
<g id="edge10" class="edge">
<title>vetoperf&#45;&gt;upv</title>
<path fill="none" stroke="black" d="M315.28,-332.76C326.31,-323.24 340.38,-311.08 352.35,-300.73"/>
<polygon fill="black" stroke="black" points="354.59,-303.43 359.86,-294.24 350.01,-298.13 354.59,-303.43"/>
</g>
<!-- cwb -->
<g id="node11" class="node">
<title>cwb</title>
<g id="a_node11"><a xlink:href="https://github.com/conda-forge/cwb-feedstock" xlink:title="cwb">
<ellipse fill="#ff8c00" stroke="black" cx="117.5" cy="-206" rx="31.22" ry="18"/>
<text text-anchor="middle" x="117.5" y="-201.33" font-family="Times,serif" font-size="14.00">cwb</text>
</a>
</g>
</g>
<!-- yoda&#45;&gt;cwb -->
<!-- delphes -->
<g id="node16" class="node">
<title>delphes</title>
<g id="a_node16"><a xlink:href="https://github.com/conda-forge/delphes-feedstock" xlink:title="delphes">
<ellipse fill="#ff8c00" stroke="black" cx="117.5" cy="-134" rx="50.16" ry="18"/>
<text text-anchor="middle" x="117.5" y="-129.32" font-family="Times,serif" font-size="14.00">delphes</text>
</a>
</g>
</g>
<!-- cwb&#45;&gt;delphes -->
<!-- gds&#45;root&#45;extensions -->
<g id="node12" class="node">
<title>gds&#45;root&#45;extensions</title>
<g id="a_node12"><a xlink:href="https://github.com/conda-forge/gds-root-extensions-feedstock/pull/35" xlink:title="gds root extensions ✓">
<ellipse fill="#31688e" stroke="black" cx="117.5" cy="-90" rx="117.5" ry="18"/>
<text text-anchor="middle" x="117.5" y="-85.33" font-family="Times,serif" font-size="14.00" fill="white">gds root extensions ✓</text>
</a>
</g>
</g>
<!-- cds&#45;crtools -->
<g id="node13" class="node">
<title>cds&#45;crtools</title>
<g id="a_node13"><a xlink:href="https://github.com/conda-forge/cds-crtools-feedstock" xlink:title="cds crtools">
<ellipse fill="#fde725" stroke="black" cx="117.5" cy="-18" rx="65.41" ry="18"/>
<text text-anchor="middle" x="117.5" y="-13.32" font-family="Times,serif" font-size="14.00">cds crtools</text>
</a>
</g>
</g>
<!-- gds&#45;root&#45;extensions&#45;&gt;cds&#45;crtools -->
<g id="edge13" class="edge">
<title>gds&#45;root&#45;extensions&#45;&gt;cds&#45;crtools</title>
<path fill="none" stroke="black" d="M117.5,-71.7C117.5,-64.41 117.5,-55.73 117.5,-47.54"/>
<polygon fill="black" stroke="black" points="121,-47.62 117.5,-37.62 114,-47.62 121,-47.62"/>
</g>
<!-- gds&#45;gui -->
<g id="node14" class="node">
<title>gds&#45;gui</title>
<g id="a_node14"><a xlink:href="https://github.com/conda-forge/gds-gui-feedstock" xlink:title="gds gui">
<ellipse fill="#ff8c00" stroke="black" cx="581.5" cy="-386" rx="48.05" ry="18"/>
<text text-anchor="middle" x="581.5" y="-381.32" font-family="Times,serif" font-size="14.00">gds gui</text>
</a>
</g>
</g>
<!-- gds&#45;monitor&#45;apps -->
<g id="node15" class="node">
<title>gds&#45;monitor&#45;apps</title>
<g id="a_node15"><a xlink:href="https://github.com/conda-forge/gds-monitor-apps-feedstock" xlink:title="gds monitor apps">
<ellipse fill="#fde725" stroke="black" cx="543.5" cy="-314" rx="98.56" ry="18"/>
<text text-anchor="middle" x="543.5" y="-309.32" font-family="Times,serif" font-size="14.00">gds monitor apps</text>
</a>
</g>
</g>
<!-- gds&#45;gui&#45;&gt;gds&#45;monitor&#45;apps -->
<g id="edge14" class="edge">
<title>gds&#45;gui&#45;&gt;gds&#45;monitor&#45;apps</title>
<path fill="none" stroke="black" d="M572.3,-368.05C568.11,-360.35 563.06,-351.03 558.35,-342.36"/>
<polygon fill="black" stroke="black" points="561.44,-340.72 553.6,-333.61 555.29,-344.06 561.44,-340.72"/>
</g>
<!-- gds&#45;dmt -->
<g id="node17" class="node">
<title>gds&#45;dmt</title>
<g id="a_node17"><a xlink:href="https://github.com/conda-forge/gds-dmt-feedstock" xlink:title="gds dmt">
<ellipse fill="#ff8c00" stroke="black" cx="505.5" cy="-458" rx="52.26" ry="18"/>
<text text-anchor="middle" x="505.5" y="-453.32" font-family="Times,serif" font-size="14.00">gds dmt</text>
</a>
</g>
</g>
<!-- gds&#45;dmt&#45;&gt;gds&#45;monitor&#45;apps -->
<g id="edge16" class="edge">
<title>gds&#45;dmt&#45;&gt;gds&#45;monitor&#45;apps</title>
<path fill="none" stroke="black" d="M508.47,-439.77C511.74,-421.72 517.49,-392.62 524.5,-368 526.86,-359.69 529.86,-350.81 532.77,-342.73"/>
<polygon fill="black" stroke="black" points="536.03,-344.01 536.22,-333.42 529.46,-341.57 536.03,-344.01"/>
</g>
</g>
</svg>
