<?xml version="1.0" encoding="UTF-8" standalone="no"?>
<!DOCTYPE svg PUBLIC "-//W3C//DTD SVG 1.1//EN"
 "http://www.w3.org/Graphics/SVG/1.1/DTD/svg11.dtd">
<!-- Generated by graphviz version 12.2.1 (20250203.1708)
 -->
<!-- Pages: 1 -->
<svg width="611pt" height="620pt"
 viewBox="0.00 0.00 611.08 620.00" xmlns="http://www.w3.org/2000/svg" xmlns:xlink="http://www.w3.org/1999/xlink">
<g id="graph0" class="graph" transform="scale(1 1) rotate(0) translate(4 616)">
<polygon fill="white" stroke="none" points="-4,4 -4,-616 607.08,-616 607.08,4 -4,4"/>
<!-- stir -->
<g id="node1" class="node">
<title>stir</title>
<g id="a_node1"><a xlink:href="https://github.com/conda-forge/stir-feedstock/pull/128" xlink:title="stir ❎">
<ellipse fill="#31688e" stroke="black" cx="92.77" cy="-594" rx="43.84" ry="18"/>
<text text-anchor="middle" x="92.77" y="-589.33" font-family="Times,serif" font-size="14.00" fill="white">stir ❎</text>
</a>
</g>
</g>
<!-- rapidsim -->
<g id="node2" class="node">
<title>rapidsim</title>
<g id="a_node2"><a xlink:href="https://github.com/conda-forge/rapidsim-feedstock" xlink:title="rapidsim">
<ellipse fill="#ff8c00" stroke="black" cx="92.77" cy="-522" rx="55.42" ry="18"/>
<text text-anchor="middle" x="92.77" y="-517.33" font-family="Times,serif" font-size="14.00">rapidsim</text>
</a>
</g>
</g>
<!-- stir&#45;&gt;rapidsim -->
<!-- ostaphep -->
<g id="node3" class="node">
<title>ostaphep</title>
<g id="a_node3"><a xlink:href="https://github.com/conda-forge/ostaphep-feedstock" xlink:title="ostaphep">
<ellipse fill="#ff8c00" stroke="black" cx="92.77" cy="-450" rx="57" ry="18"/>
<text text-anchor="middle" x="92.77" y="-445.32" font-family="Times,serif" font-size="14.00">ostaphep</text>
</a>
</g>
</g>
<!-- rapidsim&#45;&gt;ostaphep -->
<!-- lhcb&#45;simpletools -->
<g id="node4" class="node">
<title>lhcb&#45;simpletools</title>
<g id="a_node4"><a xlink:href="https://github.com/conda-forge/lhcb-simpletools-feedstock" xlink:title="lhcb simpletools">
<ellipse fill="#ff8c00" stroke="black" cx="92.77" cy="-378" rx="92.77" ry="18"/>
<text text-anchor="middle" x="92.77" y="-373.32" font-family="Times,serif" font-size="14.00">lhcb simpletools</text>
</a>
</g>
</g>
<!-- ostaphep&#45;&gt;lhcb&#45;simpletools -->
<!-- hammer -->
<g id="node5" class="node">
<title>hammer</title>
<g id="a_node5"><a xlink:href="https://github.com/conda-forge/hammer-feedstock" xlink:title="hammer">
<ellipse fill="#ff8c00" stroke="black" cx="92.77" cy="-306" rx="52.79" ry="18"/>
<text text-anchor="middle" x="92.77" y="-301.32" font-family="Times,serif" font-size="14.00">hammer</text>
</a>
</g>
</g>
<!-- lhcb&#45;simpletools&#45;&gt;hammer -->
<!-- yoda -->
<g id="node10" class="node">
<title>yoda</title>
<g id="a_node10"><a xlink:href="https://github.com/conda-forge/yoda-feedstock" xlink:title="yoda">
<ellipse fill="#ff8c00" stroke="black" cx="92.77" cy="-234" rx="34.9" ry="18"/>
<text text-anchor="middle" x="92.77" y="-229.32" font-family="Times,serif" font-size="14.00">yoda</text>
</a>
</g>
</g>
<!-- hammer&#45;&gt;yoda -->
<!-- gwollum -->
<g id="node6" class="node">
<title>gwollum</title>
<g id="a_node6"><a xlink:href="https://github.com/conda-forge/gwollum-feedstock" xlink:title="gwollum">
<ellipse fill="#ff8c00" stroke="black" cx="305.77" cy="-414" rx="53.84" ry="18"/>
<text text-anchor="middle" x="305.77" y="-409.32" font-family="Times,serif" font-size="14.00">gwollum</text>
</a>
</g>
</g>
<!-- omicron -->
<g id="node7" class="node">
<title>omicron</title>
<g id="a_node7"><a xlink:href="https://github.com/conda-forge/omicron-feedstock" xlink:title="omicron">
<ellipse fill="#fde725" stroke="black" cx="305.77" cy="-342" rx="51.74" ry="18"/>
<text text-anchor="middle" x="305.77" y="-337.32" font-family="Times,serif" font-size="14.00">omicron</text>
</a>
</g>
</g>
<!-- gwollum&#45;&gt;omicron -->
<g id="edge5" class="edge">
<title>gwollum&#45;&gt;omicron</title>
<path fill="none" stroke="black" d="M305.77,-395.7C305.77,-388.41 305.77,-379.73 305.77,-371.54"/>
<polygon fill="black" stroke="black" points="309.27,-371.62 305.77,-361.62 302.27,-371.62 309.27,-371.62"/>
</g>
<!-- vetoperf -->
<g id="node8" class="node">
<title>vetoperf</title>
<g id="a_node8"><a xlink:href="https://github.com/conda-forge/vetoperf-feedstock" xlink:title="vetoperf">
<ellipse fill="#fde725" stroke="black" cx="246.77" cy="-270" rx="53.31" ry="18"/>
<text text-anchor="middle" x="246.77" y="-265.32" font-family="Times,serif" font-size="14.00">vetoperf</text>
</a>
</g>
</g>
<!-- gwollum&#45;&gt;vetoperf -->
<g id="edge6" class="edge">
<title>gwollum&#45;&gt;vetoperf</title>
<path fill="none" stroke="black" d="M279.6,-397.88C266.53,-388.76 251.99,-375.83 244.77,-360 236.19,-341.17 237.13,-317.69 239.98,-299.58"/>
<polygon fill="black" stroke="black" points="243.42,-300.25 241.83,-289.77 236.54,-298.95 243.42,-300.25"/>
</g>
<!-- upv -->
<g id="node9" class="node">
<title>upv</title>
<g id="a_node9"><a xlink:href="https://github.com/conda-forge/upv-feedstock" xlink:title="upv">
<ellipse fill="#fde725" stroke="black" cx="327.77" cy="-198" rx="29.64" ry="18"/>
<text text-anchor="middle" x="327.77" y="-193.32" font-family="Times,serif" font-size="14.00">upv</text>
</a>
</g>
</g>
<!-- gwollum&#45;&gt;upv -->
<g id="edge7" class="edge">
<title>gwollum&#45;&gt;upv</title>
<path fill="none" stroke="black" d="M331.95,-397.88C345.02,-388.76 359.56,-375.83 366.77,-360 387.33,-314.9 362.53,-257.55 344.13,-224.89"/>
<polygon fill="black" stroke="black" points="347.29,-223.36 339.21,-216.51 341.25,-226.9 347.29,-223.36"/>
</g>
<!-- omicron&#45;&gt;vetoperf -->
<g id="edge8" class="edge">
<title>omicron&#45;&gt;vetoperf</title>
<path fill="none" stroke="black" d="M291.79,-324.41C284.66,-315.95 275.85,-305.49 267.91,-296.08"/>
<polygon fill="black" stroke="black" points="270.75,-294.02 261.63,-288.63 265.4,-298.53 270.75,-294.02"/>
</g>
<!-- omicron&#45;&gt;upv -->
<g id="edge9" class="edge">
<title>omicron&#45;&gt;upv</title>
<path fill="none" stroke="black" d="M308.47,-323.59C312.18,-299.61 318.92,-256.14 323.37,-227.42"/>
<polygon fill="black" stroke="black" points="326.82,-228.02 324.89,-217.61 319.9,-226.95 326.82,-228.02"/>
</g>
<!-- vetoperf&#45;&gt;upv -->
<g id="edge10" class="edge">
<title>vetoperf&#45;&gt;upv</title>
<path fill="none" stroke="black" d="M265.56,-252.76C276.58,-243.24 290.65,-231.08 302.62,-220.73"/>
<polygon fill="black" stroke="black" points="304.86,-223.43 310.14,-214.24 300.28,-218.13 304.86,-223.43"/>
</g>
<!-- cds&#45;crtools -->
<g id="node11" class="node">
<title>cds&#45;crtools</title>
<g id="a_node11"><a xlink:href="https://github.com/conda-forge/cds-crtools-feedstock" xlink:title="cds crtools">
<ellipse fill="#35b779" stroke="black" cx="92.77" cy="-162" rx="65.41" ry="18"/>
<text text-anchor="middle" x="92.77" y="-157.32" font-family="Times,serif" font-size="14.00">cds crtools</text>
</a>
</g>
</g>
<!-- yoda&#45;&gt;cds&#45;crtools -->
<!-- cwb -->
<g id="node14" class="node">
<title>cwb</title>
<g id="a_node14"><a xlink:href="https://github.com/conda-forge/cwb-feedstock/pull/30" xlink:title="cwb ❎">
<ellipse fill="#31688e" stroke="black" cx="92.77" cy="-90" rx="46.47" ry="18"/>
<text text-anchor="middle" x="92.77" y="-85.33" font-family="Times,serif" font-size="14.00" fill="white">cwb ❎</text>
</a>
</g>
</g>
<!-- cds&#45;crtools&#45;&gt;cwb -->
<!-- gds&#45;gui -->
<g id="node12" class="node">
<title>gds&#45;gui</title>
<g id="a_node12"><a xlink:href="https://github.com/conda-forge/gds-gui-feedstock/pull/26" xlink:title="gds gui ❎">
<ellipse fill="#31688e" stroke="black" cx="539.77" cy="-306" rx="63.31" ry="18"/>
<text text-anchor="middle" x="539.77" y="-301.32" font-family="Times,serif" font-size="14.00" fill="white">gds gui ❎</text>
</a>
</g>
</g>
<!-- gds&#45;monitor&#45;apps -->
<g id="node13" class="node">
<title>gds&#45;monitor&#45;apps</title>
<g id="a_node13"><a xlink:href="https://github.com/conda-forge/gds-monitor-apps-feedstock" xlink:title="gds monitor apps">
<ellipse fill="#fde725" stroke="black" cx="493.77" cy="-234" rx="98.56" ry="18"/>
<text text-anchor="middle" x="493.77" y="-229.32" font-family="Times,serif" font-size="14.00">gds monitor apps</text>
</a>
</g>
</g>
<!-- gds&#45;gui&#45;&gt;gds&#45;monitor&#45;apps -->
<g id="edge13" class="edge">
<title>gds&#45;gui&#45;&gt;gds&#45;monitor&#45;apps</title>
<path fill="none" stroke="black" d="M528.64,-288.05C523.46,-280.18 517.18,-270.62 511.38,-261.79"/>
<polygon fill="black" stroke="black" points="514.37,-259.98 505.96,-253.54 508.52,-263.82 514.37,-259.98"/>
</g>
<!-- delphes -->
<g id="node15" class="node">
<title>delphes</title>
<g id="a_node15"><a xlink:href="https://github.com/conda-forge/delphes-feedstock/pull/7" xlink:title="delphes ❎">
<ellipse fill="#31688e" stroke="black" cx="92.77" cy="-18" rx="65.41" ry="18"/>
<text text-anchor="middle" x="92.77" y="-13.32" font-family="Times,serif" font-size="14.00" fill="white">delphes ❎</text>
</a>
</g>
</g>
<!-- cwb&#45;&gt;delphes -->
<!-- gds&#45;dmt -->
<g id="node16" class="node">
<title>gds&#45;dmt</title>
<g id="a_node16"><a xlink:href="https://github.com/conda-forge/gds-dmt-feedstock" xlink:title="gds dmt">
<ellipse fill="#ff8c00" stroke="black" cx="448.77" cy="-378" rx="52.26" ry="18"/>
<text text-anchor="middle" x="448.77" y="-373.32" font-family="Times,serif" font-size="14.00">gds dmt</text>
</a>
</g>
</g>
<!-- gds&#45;dmt&#45;&gt;gds&#45;monitor&#45;apps -->
<g id="edge16" class="edge">
<title>gds&#45;dmt&#45;&gt;gds&#45;monitor&#45;apps</title>
<path fill="none" stroke="black" d="M451.19,-359.6C454.02,-341.4 459.4,-312.19 467.77,-288 470.76,-279.38 474.81,-270.35 478.82,-262.23"/>
<polygon fill="black" stroke="black" points="481.83,-264.04 483.3,-253.55 475.61,-260.83 481.83,-264.04"/>
</g>
</g>
</svg>
