<?xml version="1.0" encoding="UTF-8" standalone="no"?>
<!DOCTYPE svg PUBLIC "-//W3C//DTD SVG 1.1//EN"
 "http://www.w3.org/Graphics/SVG/1.1/DTD/svg11.dtd">
<!-- Generated by graphviz version 12.2.1 (20250203.1708)
 -->
<!-- Pages: 1 -->
<svg width="654pt" height="276pt"
 viewBox="0.00 0.00 653.89 276.00" xmlns="http://www.w3.org/2000/svg" xmlns:xlink="http://www.w3.org/1999/xlink">
<g id="graph0" class="graph" transform="scale(1 1) rotate(0) translate(4 272)">
<polygon fill="white" stroke="none" points="-4,4 -4,-272 649.89,-272 649.89,4 -4,4"/>
<!-- rapidsim -->
<g id="node1" class="node">
<title>rapidsim</title>
<g id="a_node1"><a xlink:href="https://github.com/conda-forge/rapidsim-feedstock/pull/30" xlink:title="rapidsim ✓">
<ellipse fill="#31688e" stroke="black" cx="125.15" cy="-62" rx="63.31" ry="18"/>
<text text-anchor="middle" x="125.15" y="-57.33" font-family="Times,serif" font-size="14.00" fill="white">rapidsim ✓</text>
</a>
</g>
</g>
<!-- omicron -->
<g id="node2" class="node">
<title>omicron</title>
<g id="a_node2"><a xlink:href="https://github.com/conda-forge/omicron-feedstock" xlink:title="omicron">
<ellipse fill="#35b779" stroke="black" cx="594.15" cy="-250" rx="51.73" ry="18"/>
<text text-anchor="middle" x="594.15" y="-245.32" font-family="Times,serif" font-size="14.00">omicron</text>
</a>
</g>
</g>
<!-- vetoperf -->
<g id="node8" class="node">
<title>vetoperf</title>
<g id="a_node8"><a xlink:href="https://github.com/conda-forge/vetoperf-feedstock" xlink:title="vetoperf">
<ellipse fill="#fde725" stroke="black" cx="554.15" cy="-178" rx="53.31" ry="18"/>
<text text-anchor="middle" x="554.15" y="-173.32" font-family="Times,serif" font-size="14.00">vetoperf</text>
</a>
</g>
</g>
<!-- omicron&#45;&gt;vetoperf -->
<g id="edge2" class="edge">
<title>omicron&#45;&gt;vetoperf</title>
<path fill="none" stroke="black" d="M584.47,-232.05C579.95,-224.14 574.46,-214.54 569.4,-205.69"/>
<polygon fill="black" stroke="black" points="572.5,-204.05 564.5,-197.1 566.42,-207.52 572.5,-204.05"/>
</g>
<!-- upv -->
<g id="node9" class="node">
<title>upv</title>
<g id="a_node9"><a xlink:href="https://github.com/conda-forge/upv-feedstock" xlink:title="upv">
<ellipse fill="#fde725" stroke="black" cx="594.15" cy="-106" rx="29.64" ry="18"/>
<text text-anchor="middle" x="594.15" y="-101.33" font-family="Times,serif" font-size="14.00">upv</text>
</a>
</g>
</g>
<!-- omicron&#45;&gt;upv -->
<g id="edge1" class="edge">
<title>omicron&#45;&gt;upv</title>
<path fill="none" stroke="black" d="M603.28,-231.88C608.16,-221.76 613.66,-208.51 616.15,-196 619.28,-180.31 619.28,-175.69 616.15,-160 614.41,-151.27 611.2,-142.17 607.77,-134.03"/>
<polygon fill="black" stroke="black" points="611,-132.69 603.68,-125.03 604.63,-135.58 611,-132.69"/>
</g>
<!-- hammer -->
<g id="node3" class="node">
<title>hammer</title>
<g id="a_node3"><a xlink:href="https://github.com/conda-forge/hammer-feedstock/pull/53" xlink:title="hammer ✓">
<ellipse fill="#31688e" stroke="black" cx="376.15" cy="-62" rx="60.68" ry="18"/>
<text text-anchor="middle" x="376.15" y="-57.33" font-family="Times,serif" font-size="14.00" fill="white">hammer ✓</text>
</a>
</g>
</g>
<!-- yoda -->
<g id="node4" class="node">
<title>yoda</title>
<g id="a_node4"><a xlink:href="https://github.com/conda-forge/yoda-feedstock/pull/47" xlink:title="yoda ❎">
<ellipse fill="#31688e" stroke="black" cx="574.15" cy="-62" rx="50.16" ry="18"/>
<text text-anchor="middle" x="574.15" y="-57.33" font-family="Times,serif" font-size="14.00" fill="white">yoda ❎</text>
</a>
</g>
</g>
<!-- gds&#45;root&#45;extensions -->
<g id="node5" class="node">
<title>gds&#45;root&#45;extensions</title>
<g id="a_node5"><a xlink:href="https://github.com/conda-forge/gds-root-extensions-feedstock/pull/36" xlink:title="gds root extensions ✓">
<ellipse fill="#31688e" stroke="black" cx="376.15" cy="-214" rx="117.5" ry="18"/>
<text text-anchor="middle" x="376.15" y="-209.32" font-family="Times,serif" font-size="14.00" fill="white">gds root extensions ✓</text>
</a>
</g>
</g>
<!-- cds&#45;crtools -->
<g id="node7" class="node">
<title>cds&#45;crtools</title>
<g id="a_node7"><a xlink:href="https://github.com/conda-forge/cds-crtools-feedstock" xlink:title="cds crtools">
<ellipse fill="#fde725" stroke="black" cx="376.15" cy="-142" rx="65.41" ry="18"/>
<text text-anchor="middle" x="376.15" y="-137.32" font-family="Times,serif" font-size="14.00">cds crtools</text>
</a>
</g>
</g>
<!-- gds&#45;root&#45;extensions&#45;&gt;cds&#45;crtools -->
<g id="edge3" class="edge">
<title>gds&#45;root&#45;extensions&#45;&gt;cds&#45;crtools</title>
<path fill="none" stroke="black" d="M376.15,-195.7C376.15,-188.41 376.15,-179.73 376.15,-171.54"/>
<polygon fill="black" stroke="black" points="379.65,-171.62 376.15,-161.62 372.65,-171.62 379.65,-171.62"/>
</g>
<!-- gds&#45;gui -->
<g id="node6" class="node">
<title>gds&#45;gui</title>
<g id="a_node6"><a xlink:href="https://github.com/conda-forge/gds-gui-feedstock/pull/27" xlink:title="gds gui ✓">
<ellipse fill="#31688e" stroke="black" cx="194.15" cy="-214" rx="55.94" ry="18"/>
<text text-anchor="middle" x="194.15" y="-209.32" font-family="Times,serif" font-size="14.00" fill="white">gds gui ✓</text>
</a>
</g>
</g>
<!-- gds&#45;monitor&#45;apps -->
<g id="node11" class="node">
<title>gds&#45;monitor&#45;apps</title>
<g id="a_node11"><a xlink:href="https://github.com/conda-forge/gds-monitor-apps-feedstock" xlink:title="gds monitor apps">
<ellipse fill="#fde725" stroke="black" cx="127.15" cy="-142" rx="98.56" ry="18"/>
<text text-anchor="middle" x="127.15" y="-137.32" font-family="Times,serif" font-size="14.00">gds monitor apps</text>
</a>
</g>
</g>
<!-- gds&#45;gui&#45;&gt;gds&#45;monitor&#45;apps -->
<g id="edge4" class="edge">
<title>gds&#45;gui&#45;&gt;gds&#45;monitor&#45;apps</title>
<path fill="none" stroke="black" d="M178.27,-196.41C170.22,-187.99 160.25,-177.58 151.27,-168.2"/>
<polygon fill="black" stroke="black" points="153.87,-165.85 144.43,-161.05 148.81,-170.69 153.87,-165.85"/>
</g>
<!-- vetoperf&#45;&gt;upv -->
<g id="edge5" class="edge">
<title>vetoperf&#45;&gt;upv</title>
<path fill="none" stroke="black" d="M563.83,-160.05C568.42,-152.03 574.01,-142.26 579.12,-133.3"/>
<polygon fill="black" stroke="black" points="582.16,-135.04 584.08,-124.62 576.08,-131.57 582.16,-135.04"/>
</g>
<!-- cwb -->
<g id="node10" class="node">
<title>cwb</title>
<g id="a_node10"><a xlink:href="https://github.com/conda-forge/cwb-feedstock/pull/31" xlink:title="cwb ✓">
<ellipse fill="#31688e" stroke="black" cx="125.15" cy="-18" rx="39.11" ry="18"/>
<text text-anchor="middle" x="125.15" y="-13.32" font-family="Times,serif" font-size="14.00" fill="white">cwb ✓</text>
</a>
</g>
</g>
<!-- gds&#45;dmt -->
<g id="node12" class="node">
<title>gds&#45;dmt</title>
<g id="a_node12"><a xlink:href="https://github.com/conda-forge/gds-dmt-feedstock/pull/10" xlink:title="gds dmt ✓">
<ellipse fill="#31688e" stroke="black" cx="60.15" cy="-214" rx="60.15" ry="18"/>
<text text-anchor="middle" x="60.15" y="-209.32" font-family="Times,serif" font-size="14.00" fill="white">gds dmt ✓</text>
</a>
</g>
</g>
<!-- gds&#45;dmt&#45;&gt;gds&#45;monitor&#45;apps -->
<g id="edge6" class="edge">
<title>gds&#45;dmt&#45;&gt;gds&#45;monitor&#45;apps</title>
<path fill="none" stroke="black" d="M76.03,-196.41C84.09,-187.99 94.05,-177.58 103.03,-168.2"/>
<polygon fill="black" stroke="black" points="105.49,-170.69 109.88,-161.05 100.43,-165.85 105.49,-170.69"/>
</g>
</g>
</svg>
