<?xml version="1.0" encoding="UTF-8" standalone="no"?>
<!DOCTYPE svg PUBLIC "-//W3C//DTD SVG 1.1//EN"
 "http://www.w3.org/Graphics/SVG/1.1/DTD/svg11.dtd">
<!-- Generated by graphviz version 12.2.1 (20250203.1708)
 -->
<!-- Pages: 1 -->
<svg width="710pt" height="348pt"
 viewBox="0.00 0.00 710.16 348.00" xmlns="http://www.w3.org/2000/svg" xmlns:xlink="http://www.w3.org/1999/xlink">
<g id="graph0" class="graph" transform="scale(1 1) rotate(0) translate(4 344)">
<polygon fill="white" stroke="none" points="-4,4 -4,-344 706.16,-344 706.16,4 -4,4"/>
<!-- rapidsim -->
<g id="node1" class="node">
<title>rapidsim</title>
<g id="a_node1"><a xlink:href="https://github.com/conda-forge/rapidsim-feedstock" xlink:title="rapidsim">
<ellipse fill="#fde725" stroke="black" cx="333.66" cy="-62" rx="55.42" ry="18"/>
<text text-anchor="middle" x="333.66" y="-57.33" font-family="Times,serif" font-size="14.00">rapidsim</text>
</a>
</g>
</g>
<!-- lhcb&#45;simpletools -->
<g id="node2" class="node">
<title>lhcb&#45;simpletools</title>
<g id="a_node2"><a xlink:href="https://github.com/conda-forge/lhcb-simpletools-feedstock/pull/37" xlink:title="lhcb simpletools ✓">
<ellipse fill="#31688e" stroke="black" cx="100.66" cy="-62" rx="100.66" ry="18"/>
<text text-anchor="middle" x="100.66" y="-57.33" font-family="Times,serif" font-size="14.00" fill="white">lhcb simpletools ✓</text>
</a>
</g>
</g>
<!-- gwollum -->
<g id="node3" class="node">
<title>gwollum</title>
<g id="a_node3"><a xlink:href="https://github.com/conda-forge/gwollum-feedstock/pull/64" xlink:title="gwollum ✓">
<ellipse fill="#31688e" stroke="black" cx="115.66" cy="-322" rx="61.73" ry="18"/>
<text text-anchor="middle" x="115.66" y="-317.32" font-family="Times,serif" font-size="14.00" fill="white">gwollum ✓</text>
</a>
</g>
</g>
<!-- omicron -->
<g id="node4" class="node">
<title>omicron</title>
<g id="a_node4"><a xlink:href="https://github.com/conda-forge/omicron-feedstock" xlink:title="omicron">
<ellipse fill="#fde725" stroke="black" cx="115.66" cy="-250" rx="51.73" ry="18"/>
<text text-anchor="middle" x="115.66" y="-245.32" font-family="Times,serif" font-size="14.00">omicron</text>
</a>
</g>
</g>
<!-- gwollum&#45;&gt;omicron -->
<g id="edge1" class="edge">
<title>gwollum&#45;&gt;omicron</title>
<path fill="none" stroke="black" d="M115.66,-303.7C115.66,-296.41 115.66,-287.73 115.66,-279.54"/>
<polygon fill="black" stroke="black" points="119.16,-279.62 115.66,-269.62 112.16,-279.62 119.16,-279.62"/>
</g>
<!-- vetoperf -->
<g id="node10" class="node">
<title>vetoperf</title>
<g id="a_node10"><a xlink:href="https://github.com/conda-forge/vetoperf-feedstock" xlink:title="vetoperf">
<ellipse fill="#fde725" stroke="black" cx="56.66" cy="-178" rx="53.31" ry="18"/>
<text text-anchor="middle" x="56.66" y="-173.32" font-family="Times,serif" font-size="14.00">vetoperf</text>
</a>
</g>
</g>
<!-- gwollum&#45;&gt;vetoperf -->
<g id="edge3" class="edge">
<title>gwollum&#45;&gt;vetoperf</title>
<path fill="none" stroke="black" d="M88.86,-305.44C75.95,-296.34 61.76,-283.57 54.66,-268 46.08,-249.17 47.02,-225.69 49.87,-207.58"/>
<polygon fill="black" stroke="black" points="53.31,-208.25 51.72,-197.77 46.43,-206.95 53.31,-208.25"/>
</g>
<!-- upv -->
<g id="node11" class="node">
<title>upv</title>
<g id="a_node11"><a xlink:href="https://github.com/conda-forge/upv-feedstock" xlink:title="upv">
<ellipse fill="#fde725" stroke="black" cx="137.66" cy="-106" rx="29.64" ry="18"/>
<text text-anchor="middle" x="137.66" y="-101.33" font-family="Times,serif" font-size="14.00">upv</text>
</a>
</g>
</g>
<!-- gwollum&#45;&gt;upv -->
<g id="edge2" class="edge">
<title>gwollum&#45;&gt;upv</title>
<path fill="none" stroke="black" d="M142.47,-305.44C155.38,-296.34 169.56,-283.57 176.66,-268 197.22,-222.9 172.42,-165.55 154.02,-132.89"/>
<polygon fill="black" stroke="black" points="157.18,-131.36 149.1,-124.51 151.14,-134.9 157.18,-131.36"/>
</g>
<!-- omicron&#45;&gt;vetoperf -->
<g id="edge5" class="edge">
<title>omicron&#45;&gt;vetoperf</title>
<path fill="none" stroke="black" d="M101.68,-232.41C94.55,-223.95 85.74,-213.49 77.8,-204.08"/>
<polygon fill="black" stroke="black" points="80.64,-202.02 71.52,-196.63 75.29,-206.53 80.64,-202.02"/>
</g>
<!-- omicron&#45;&gt;upv -->
<g id="edge4" class="edge">
<title>omicron&#45;&gt;upv</title>
<path fill="none" stroke="black" d="M118.36,-231.59C122.07,-207.61 128.81,-164.14 133.26,-135.42"/>
<polygon fill="black" stroke="black" points="136.71,-136.02 134.78,-125.61 129.79,-134.95 136.71,-136.02"/>
</g>
<!-- hammer -->
<g id="node5" class="node">
<title>hammer</title>
<g id="a_node5"><a xlink:href="https://github.com/conda-forge/hammer-feedstock" xlink:title="hammer">
<ellipse fill="#fde725" stroke="black" cx="584.66" cy="-62" rx="52.79" ry="18"/>
<text text-anchor="middle" x="584.66" y="-57.33" font-family="Times,serif" font-size="14.00">hammer</text>
</a>
</g>
</g>
<!-- yoda -->
<g id="node6" class="node">
<title>yoda</title>
<g id="a_node6"><a xlink:href="https://github.com/conda-forge/yoda-feedstock" xlink:title="yoda">
<ellipse fill="#fde725" stroke="black" cx="333.66" cy="-18" rx="34.9" ry="18"/>
<text text-anchor="middle" x="333.66" y="-13.32" font-family="Times,serif" font-size="14.00">yoda</text>
</a>
</g>
</g>
<!-- gds&#45;root&#45;extensions -->
<g id="node7" class="node">
<title>gds&#45;root&#45;extensions</title>
<g id="a_node7"><a xlink:href="https://github.com/conda-forge/gds-root-extensions-feedstock/pull/36" xlink:title="gds root extensions ✓">
<ellipse fill="#31688e" stroke="black" cx="584.66" cy="-250" rx="117.5" ry="18"/>
<text text-anchor="middle" x="584.66" y="-245.32" font-family="Times,serif" font-size="14.00" fill="white">gds root extensions ✓</text>
</a>
</g>
</g>
<!-- cds&#45;crtools -->
<g id="node9" class="node">
<title>cds&#45;crtools</title>
<g id="a_node9"><a xlink:href="https://github.com/conda-forge/cds-crtools-feedstock" xlink:title="cds crtools">
<ellipse fill="#fde725" stroke="black" cx="584.66" cy="-178" rx="65.41" ry="18"/>
<text text-anchor="middle" x="584.66" y="-173.32" font-family="Times,serif" font-size="14.00">cds crtools</text>
</a>
</g>
</g>
<!-- gds&#45;root&#45;extensions&#45;&gt;cds&#45;crtools -->
<g id="edge6" class="edge">
<title>gds&#45;root&#45;extensions&#45;&gt;cds&#45;crtools</title>
<path fill="none" stroke="black" d="M584.66,-231.7C584.66,-224.41 584.66,-215.73 584.66,-207.54"/>
<polygon fill="black" stroke="black" points="588.16,-207.62 584.66,-197.62 581.16,-207.62 588.16,-207.62"/>
</g>
<!-- gds&#45;gui -->
<g id="node8" class="node">
<title>gds&#45;gui</title>
<g id="a_node8"><a xlink:href="https://github.com/conda-forge/gds-gui-feedstock/pull/27" xlink:title="gds gui ✓">
<ellipse fill="#31688e" stroke="black" cx="402.66" cy="-250" rx="55.94" ry="18"/>
<text text-anchor="middle" x="402.66" y="-245.32" font-family="Times,serif" font-size="14.00" fill="white">gds gui ✓</text>
</a>
</g>
</g>
<!-- gds&#45;monitor&#45;apps -->
<g id="node13" class="node">
<title>gds&#45;monitor&#45;apps</title>
<g id="a_node13"><a xlink:href="https://github.com/conda-forge/gds-monitor-apps-feedstock" xlink:title="gds monitor apps">
<ellipse fill="#fde725" stroke="black" cx="335.66" cy="-178" rx="98.56" ry="18"/>
<text text-anchor="middle" x="335.66" y="-173.32" font-family="Times,serif" font-size="14.00">gds monitor apps</text>
</a>
</g>
</g>
<!-- gds&#45;gui&#45;&gt;gds&#45;monitor&#45;apps -->
<g id="edge7" class="edge">
<title>gds&#45;gui&#45;&gt;gds&#45;monitor&#45;apps</title>
<path fill="none" stroke="black" d="M386.78,-232.41C378.73,-223.99 368.77,-213.58 359.78,-204.2"/>
<polygon fill="black" stroke="black" points="362.38,-201.85 352.94,-197.05 357.32,-206.69 362.38,-201.85"/>
</g>
<!-- vetoperf&#45;&gt;upv -->
<g id="edge8" class="edge">
<title>vetoperf&#45;&gt;upv</title>
<path fill="none" stroke="black" d="M75.45,-160.76C86.47,-151.24 100.54,-139.08 112.51,-128.73"/>
<polygon fill="black" stroke="black" points="114.75,-131.43 120.03,-122.24 110.17,-126.13 114.75,-131.43"/>
</g>
<!-- cwb -->
<g id="node12" class="node">
<title>cwb</title>
<g id="a_node12"><a xlink:href="https://github.com/conda-forge/cwb-feedstock/pull/31" xlink:title="cwb ✓">
<ellipse fill="#31688e" stroke="black" cx="100.66" cy="-18" rx="39.11" ry="18"/>
<text text-anchor="middle" x="100.66" y="-13.32" font-family="Times,serif" font-size="14.00" fill="white">cwb ✓</text>
</a>
</g>
</g>
<!-- gds&#45;dmt -->
<g id="node14" class="node">
<title>gds&#45;dmt</title>
<g id="a_node14"><a xlink:href="https://github.com/conda-forge/gds-dmt-feedstock/pull/10" xlink:title="gds dmt ✓">
<ellipse fill="#31688e" stroke="black" cx="268.66" cy="-250" rx="60.15" ry="18"/>
<text text-anchor="middle" x="268.66" y="-245.32" font-family="Times,serif" font-size="14.00" fill="white">gds dmt ✓</text>
</a>
</g>
</g>
<!-- gds&#45;dmt&#45;&gt;gds&#45;monitor&#45;apps -->
<g id="edge9" class="edge">
<title>gds&#45;dmt&#45;&gt;gds&#45;monitor&#45;apps</title>
<path fill="none" stroke="black" d="M284.54,-232.41C292.6,-223.99 302.56,-213.58 311.54,-204.2"/>
<polygon fill="black" stroke="black" points="314,-206.69 318.39,-197.05 308.94,-201.85 314,-206.69"/>
</g>
</g>
</svg>
