<?xml version="1.0" encoding="UTF-8" standalone="no"?>
<!DOCTYPE svg PUBLIC "-//W3C//DTD SVG 1.1//EN"
 "http://www.w3.org/Graphics/SVG/1.1/DTD/svg11.dtd">
<!-- Generated by graphviz version 12.2.1 (20250203.1708)
 -->
<!-- Pages: 1 -->
<svg width="508pt" height="276pt"
 viewBox="0.00 0.00 507.99 276.00" xmlns="http://www.w3.org/2000/svg" xmlns:xlink="http://www.w3.org/1999/xlink">
<g id="graph0" class="graph" transform="scale(1 1) rotate(0) translate(4 272)">
<polygon fill="white" stroke="none" points="-4,4 -4,-272 503.99,-272 503.99,4 -4,4"/>
<!-- rapidsim -->
<g id="node1" class="node">
<title>rapidsim</title>
<g id="a_node1"><a xlink:href="https://github.com/conda-forge/rapidsim-feedstock/pull/29" xlink:title="rapidsim ❎">
<ellipse fill="#31688e" stroke="black" cx="429.31" cy="-178" rx="70.67" ry="18"/>
<text text-anchor="middle" x="429.31" y="-173.32" font-family="Times,serif" font-size="14.00" fill="white">rapidsim ❎</text>
</a>
</g>
</g>
<!-- omicron -->
<g id="node2" class="node">
<title>omicron</title>
<g id="a_node2"><a xlink:href="https://github.com/conda-forge/omicron-feedstock" xlink:title="omicron">
<ellipse fill="#35b779" stroke="black" cx="93.31" cy="-250" rx="51.73" ry="18"/>
<text text-anchor="middle" x="93.31" y="-245.32" font-family="Times,serif" font-size="14.00">omicron</text>
</a>
</g>
</g>
<!-- vetoperf -->
<g id="node6" class="node">
<title>vetoperf</title>
<g id="a_node6"><a xlink:href="https://github.com/conda-forge/vetoperf-feedstock" xlink:title="vetoperf">
<ellipse fill="#fde725" stroke="black" cx="53.31" cy="-178" rx="53.31" ry="18"/>
<text text-anchor="middle" x="53.31" y="-173.32" font-family="Times,serif" font-size="14.00">vetoperf</text>
</a>
</g>
</g>
<!-- omicron&#45;&gt;vetoperf -->
<g id="edge2" class="edge">
<title>omicron&#45;&gt;vetoperf</title>
<path fill="none" stroke="black" d="M83.63,-232.05C79.11,-224.14 73.62,-214.54 68.56,-205.69"/>
<polygon fill="black" stroke="black" points="71.66,-204.05 63.66,-197.1 65.58,-207.52 71.66,-204.05"/>
</g>
<!-- upv -->
<g id="node7" class="node">
<title>upv</title>
<g id="a_node7"><a xlink:href="https://github.com/conda-forge/upv-feedstock" xlink:title="upv">
<ellipse fill="#fde725" stroke="black" cx="93.31" cy="-106" rx="29.64" ry="18"/>
<text text-anchor="middle" x="93.31" y="-101.33" font-family="Times,serif" font-size="14.00">upv</text>
</a>
</g>
</g>
<!-- omicron&#45;&gt;upv -->
<g id="edge1" class="edge">
<title>omicron&#45;&gt;upv</title>
<path fill="none" stroke="black" d="M102.44,-231.88C107.32,-221.76 112.82,-208.51 115.31,-196 118.44,-180.31 118.44,-175.69 115.31,-160 113.57,-151.27 110.37,-142.17 106.93,-134.03"/>
<polygon fill="black" stroke="black" points="110.16,-132.69 102.84,-125.03 103.79,-135.58 110.16,-132.69"/>
</g>
<!-- hammer -->
<g id="node3" class="node">
<title>hammer</title>
<g id="a_node3"><a xlink:href="https://github.com/conda-forge/hammer-feedstock/pull/52" xlink:title="hammer ❎">
<ellipse fill="#31688e" stroke="black" cx="73.31" cy="-62" rx="68.04" ry="18"/>
<text text-anchor="middle" x="73.31" y="-57.33" font-family="Times,serif" font-size="14.00" fill="white">hammer ❎</text>
</a>
</g>
</g>
<!-- yoda -->
<g id="node4" class="node">
<title>yoda</title>
<g id="a_node4"><a xlink:href="https://github.com/conda-forge/yoda-feedstock/pull/46" xlink:title="yoda ❎">
<ellipse fill="#31688e" stroke="black" cx="73.31" cy="-18" rx="50.16" ry="18"/>
<text text-anchor="middle" x="73.31" y="-13.32" font-family="Times,serif" font-size="14.00" fill="white">yoda ❎</text>
</a>
</g>
</g>
<!-- cds&#45;crtools -->
<g id="node5" class="node">
<title>cds&#45;crtools</title>
<g id="a_node5"><a xlink:href="https://github.com/conda-forge/cds-crtools-feedstock" xlink:title="cds crtools">
<ellipse fill="#ff8c00" stroke="black" cx="252.31" cy="-62" rx="65.41" ry="18"/>
<text text-anchor="middle" x="252.31" y="-57.33" font-family="Times,serif" font-size="14.00">cds crtools</text>
</a>
</g>
</g>
<!-- vetoperf&#45;&gt;upv -->
<g id="edge3" class="edge">
<title>vetoperf&#45;&gt;upv</title>
<path fill="none" stroke="black" d="M63,-160.05C67.58,-152.03 73.17,-142.26 78.29,-133.3"/>
<polygon fill="black" stroke="black" points="81.32,-135.04 83.24,-124.62 75.24,-131.57 81.32,-135.04"/>
</g>
<!-- gds&#45;monitor&#45;apps -->
<g id="node8" class="node">
<title>gds&#45;monitor&#45;apps</title>
<g id="a_node8"><a xlink:href="https://github.com/conda-forge/gds-monitor-apps-feedstock" xlink:title="gds monitor apps">
<ellipse fill="#fde725" stroke="black" cx="252.31" cy="-142" rx="98.56" ry="18"/>
<text text-anchor="middle" x="252.31" y="-137.32" font-family="Times,serif" font-size="14.00">gds monitor apps</text>
</a>
</g>
</g>
<!-- gds&#45;dmt -->
<g id="node9" class="node">
<title>gds&#45;dmt</title>
<g id="a_node9"><a xlink:href="https://github.com/conda-forge/gds-dmt-feedstock/pull/9" xlink:title="gds dmt ❎">
<ellipse fill="#31688e" stroke="black" cx="252.31" cy="-214" rx="67.52" ry="18"/>
<text text-anchor="middle" x="252.31" y="-209.32" font-family="Times,serif" font-size="14.00" fill="white">gds dmt ❎</text>
</a>
</g>
</g>
<!-- gds&#45;dmt&#45;&gt;gds&#45;monitor&#45;apps -->
<g id="edge4" class="edge">
<title>gds&#45;dmt&#45;&gt;gds&#45;monitor&#45;apps</title>
<path fill="none" stroke="black" d="M252.31,-195.7C252.31,-188.41 252.31,-179.73 252.31,-171.54"/>
<polygon fill="black" stroke="black" points="255.81,-171.62 252.31,-161.62 248.81,-171.62 255.81,-171.62"/>
</g>
<!-- delphes -->
<g id="node10" class="node">
<title>delphes</title>
<g id="a_node10"><a xlink:href="https://github.com/conda-forge/delphes-feedstock/pull/7" xlink:title="delphes ❎">
<ellipse fill="#31688e" stroke="black" cx="429.31" cy="-62" rx="65.41" ry="18"/>
<text text-anchor="middle" x="429.31" y="-57.33" font-family="Times,serif" font-size="14.00" fill="white">delphes ❎</text>
</a>
</g>
</g>
</g>
</svg>
