<?xml version="1.0" encoding="UTF-8" standalone="no"?>
<!DOCTYPE svg PUBLIC "-//W3C//DTD SVG 1.1//EN"
 "http://www.w3.org/Graphics/SVG/1.1/DTD/svg11.dtd">
<!-- Generated by graphviz version 12.2.1 (20250203.1708)
 -->
<!-- Pages: 1 -->
<svg width="594pt" height="348pt"
 viewBox="0.00 0.00 593.99 348.00" xmlns="http://www.w3.org/2000/svg" xmlns:xlink="http://www.w3.org/1999/xlink">
<g id="graph0" class="graph" transform="scale(1 1) rotate(0) translate(4 344)">
<polygon fill="white" stroke="none" points="-4,4 -4,-344 589.99,-344 589.99,4 -4,4"/>
<!-- rapidsim -->
<g id="node1" class="node">
<title>rapidsim</title>
<g id="a_node1"><a xlink:href="https://github.com/conda-forge/rapidsim-feedstock/pull/29" xlink:title="rapidsim ❎">
<ellipse fill="#31688e" stroke="black" cx="515.31" cy="-214" rx="70.67" ry="18"/>
<text text-anchor="middle" x="515.31" y="-209.32" font-family="Times,serif" font-size="14.00" fill="white">rapidsim ❎</text>
</a>
</g>
</g>
<!-- ostaphep -->
<g id="node2" class="node">
<title>ostaphep</title>
<g id="a_node2"><a xlink:href="https://github.com/conda-forge/ostaphep-feedstock" xlink:title="ostaphep">
<ellipse fill="#ff8c00" stroke="black" cx="97.31" cy="-18" rx="57" ry="18"/>
<text text-anchor="middle" x="97.31" y="-13.32" font-family="Times,serif" font-size="14.00">ostaphep</text>
</a>
</g>
</g>
<!-- gwollum -->
<g id="node3" class="node">
<title>gwollum</title>
<g id="a_node3"><a xlink:href="https://github.com/conda-forge/gwollum-feedstock/pull/63" xlink:title="gwollum ❎">
<ellipse fill="#31688e" stroke="black" cx="112.31" cy="-322" rx="69.1" ry="18"/>
<text text-anchor="middle" x="112.31" y="-317.32" font-family="Times,serif" font-size="14.00" fill="white">gwollum ❎</text>
</a>
</g>
</g>
<!-- omicron -->
<g id="node4" class="node">
<title>omicron</title>
<g id="a_node4"><a xlink:href="https://github.com/conda-forge/omicron-feedstock" xlink:title="omicron">
<ellipse fill="#fde725" stroke="black" cx="112.31" cy="-250" rx="51.73" ry="18"/>
<text text-anchor="middle" x="112.31" y="-245.32" font-family="Times,serif" font-size="14.00">omicron</text>
</a>
</g>
</g>
<!-- gwollum&#45;&gt;omicron -->
<g id="edge1" class="edge">
<title>gwollum&#45;&gt;omicron</title>
<path fill="none" stroke="black" d="M112.31,-303.7C112.31,-296.41 112.31,-287.73 112.31,-279.54"/>
<polygon fill="black" stroke="black" points="115.81,-279.62 112.31,-269.62 108.81,-279.62 115.81,-279.62"/>
</g>
<!-- vetoperf -->
<g id="node9" class="node">
<title>vetoperf</title>
<g id="a_node9"><a xlink:href="https://github.com/conda-forge/vetoperf-feedstock" xlink:title="vetoperf">
<ellipse fill="#fde725" stroke="black" cx="53.31" cy="-178" rx="53.31" ry="18"/>
<text text-anchor="middle" x="53.31" y="-173.32" font-family="Times,serif" font-size="14.00">vetoperf</text>
</a>
</g>
</g>
<!-- gwollum&#45;&gt;vetoperf -->
<g id="edge3" class="edge">
<title>gwollum&#45;&gt;vetoperf</title>
<path fill="none" stroke="black" d="M85.19,-305.21C72.37,-296.13 58.35,-283.45 51.31,-268 42.73,-249.17 43.67,-225.69 46.52,-207.58"/>
<polygon fill="black" stroke="black" points="49.96,-208.25 48.37,-197.77 43.08,-206.95 49.96,-208.25"/>
</g>
<!-- upv -->
<g id="node10" class="node">
<title>upv</title>
<g id="a_node10"><a xlink:href="https://github.com/conda-forge/upv-feedstock" xlink:title="upv">
<ellipse fill="#fde725" stroke="black" cx="134.31" cy="-106" rx="29.64" ry="18"/>
<text text-anchor="middle" x="134.31" y="-101.33" font-family="Times,serif" font-size="14.00">upv</text>
</a>
</g>
</g>
<!-- gwollum&#45;&gt;upv -->
<g id="edge2" class="edge">
<title>gwollum&#45;&gt;upv</title>
<path fill="none" stroke="black" d="M139.44,-305.21C152.26,-296.13 166.27,-283.45 173.31,-268 193.87,-222.9 169.07,-165.55 150.67,-132.89"/>
<polygon fill="black" stroke="black" points="153.83,-131.36 145.75,-124.51 147.79,-134.9 153.83,-131.36"/>
</g>
<!-- omicron&#45;&gt;vetoperf -->
<g id="edge5" class="edge">
<title>omicron&#45;&gt;vetoperf</title>
<path fill="none" stroke="black" d="M98.33,-232.41C91.2,-223.95 82.39,-213.49 74.45,-204.08"/>
<polygon fill="black" stroke="black" points="77.29,-202.02 68.17,-196.63 71.94,-206.53 77.29,-202.02"/>
</g>
<!-- omicron&#45;&gt;upv -->
<g id="edge4" class="edge">
<title>omicron&#45;&gt;upv</title>
<path fill="none" stroke="black" d="M115.01,-231.59C118.72,-207.61 125.46,-164.14 129.91,-135.42"/>
<polygon fill="black" stroke="black" points="133.36,-136.02 131.43,-125.61 126.44,-134.95 133.36,-136.02"/>
</g>
<!-- hammer -->
<g id="node5" class="node">
<title>hammer</title>
<g id="a_node5"><a xlink:href="https://github.com/conda-forge/hammer-feedstock/pull/52" xlink:title="hammer ❎">
<ellipse fill="#31688e" stroke="black" cx="97.31" cy="-62" rx="68.04" ry="18"/>
<text text-anchor="middle" x="97.31" y="-57.33" font-family="Times,serif" font-size="14.00" fill="white">hammer ❎</text>
</a>
</g>
</g>
<!-- yoda -->
<g id="node6" class="node">
<title>yoda</title>
<g id="a_node6"><a xlink:href="https://github.com/conda-forge/yoda-feedstock" xlink:title="yoda">
<ellipse fill="#ff8c00" stroke="black" cx="319.31" cy="-18" rx="34.9" ry="18"/>
<text text-anchor="middle" x="319.31" y="-13.32" font-family="Times,serif" font-size="14.00">yoda</text>
</a>
</g>
</g>
<!-- gds&#45;gui -->
<g id="node7" class="node">
<title>gds&#45;gui</title>
<g id="a_node7"><a xlink:href="https://github.com/conda-forge/gds-gui-feedstock/pull/26" xlink:title="gds gui ✓">
<ellipse fill="#31688e" stroke="black" cx="380.31" cy="-250" rx="55.94" ry="18"/>
<text text-anchor="middle" x="380.31" y="-245.32" font-family="Times,serif" font-size="14.00" fill="white">gds gui ✓</text>
</a>
</g>
</g>
<!-- gds&#45;monitor&#45;apps -->
<g id="node11" class="node">
<title>gds&#45;monitor&#45;apps</title>
<g id="a_node11"><a xlink:href="https://github.com/conda-forge/gds-monitor-apps-feedstock" xlink:title="gds monitor apps">
<ellipse fill="#fde725" stroke="black" cx="317.31" cy="-178" rx="98.56" ry="18"/>
<text text-anchor="middle" x="317.31" y="-173.32" font-family="Times,serif" font-size="14.00">gds monitor apps</text>
</a>
</g>
</g>
<!-- gds&#45;gui&#45;&gt;gds&#45;monitor&#45;apps -->
<g id="edge6" class="edge">
<title>gds&#45;gui&#45;&gt;gds&#45;monitor&#45;apps</title>
<path fill="none" stroke="black" d="M365.38,-232.41C357.88,-224.08 348.63,-213.8 340.25,-204.49"/>
<polygon fill="black" stroke="black" points="342.88,-202.17 333.59,-197.08 337.67,-206.86 342.88,-202.17"/>
</g>
<!-- cds&#45;crtools -->
<g id="node8" class="node">
<title>cds&#45;crtools</title>
<g id="a_node8"><a xlink:href="https://github.com/conda-forge/cds-crtools-feedstock" xlink:title="cds crtools">
<ellipse fill="#ff8c00" stroke="black" cx="319.31" cy="-62" rx="65.41" ry="18"/>
<text text-anchor="middle" x="319.31" y="-57.33" font-family="Times,serif" font-size="14.00">cds crtools</text>
</a>
</g>
</g>
<!-- vetoperf&#45;&gt;upv -->
<g id="edge7" class="edge">
<title>vetoperf&#45;&gt;upv</title>
<path fill="none" stroke="black" d="M72.1,-160.76C83.12,-151.24 97.19,-139.08 109.16,-128.73"/>
<polygon fill="black" stroke="black" points="111.4,-131.43 116.68,-122.24 106.82,-126.13 111.4,-131.43"/>
</g>
<!-- gds&#45;dmt -->
<g id="node12" class="node">
<title>gds&#45;dmt</title>
<g id="a_node12"><a xlink:href="https://github.com/conda-forge/gds-dmt-feedstock" xlink:title="gds dmt">
<ellipse fill="#ff8c00" stroke="black" cx="254.31" cy="-250" rx="52.26" ry="18"/>
<text text-anchor="middle" x="254.31" y="-245.32" font-family="Times,serif" font-size="14.00">gds dmt</text>
</a>
</g>
</g>
<!-- gds&#45;dmt&#45;&gt;gds&#45;monitor&#45;apps -->
<g id="edge8" class="edge">
<title>gds&#45;dmt&#45;&gt;gds&#45;monitor&#45;apps</title>
<path fill="none" stroke="black" d="M269.24,-232.41C276.74,-224.08 286,-213.8 294.37,-204.49"/>
<polygon fill="black" stroke="black" points="296.95,-206.86 301.04,-197.08 291.75,-202.17 296.95,-206.86"/>
</g>
<!-- delphes -->
<g id="node13" class="node">
<title>delphes</title>
<g id="a_node13"><a xlink:href="https://github.com/conda-forge/delphes-feedstock/pull/7" xlink:title="delphes ❎">
<ellipse fill="#31688e" stroke="black" cx="515.31" cy="-62" rx="65.41" ry="18"/>
<text text-anchor="middle" x="515.31" y="-57.33" font-family="Times,serif" font-size="14.00" fill="white">delphes ❎</text>
</a>
</g>
</g>
</g>
</svg>
